<svg version="1.0" xmlns="http://www.w3.org/2000/svg"
 width="300.000000pt" height="533.000000pt" viewBox="0 0 300.000000 533.000000"
 preserveAspectRatio="xMidYMid meet">
<g transform="translate(0.000000,533.000000) scale(0.100000,-0.100000)"
fill="#000000" stroke="none">
<path d="M1300 4379 c-30 -3 -82 -9 -115 -13 -139 -16 -303 -73 -470 -164
-189 -103 -266 -153 -315 -202 -62 -64 -143 -231 -120 -245 5 -3 14 13 20 35
6 22 15 38 21 35 5 -4 22 3 37 15 115 89 142 109 182 136 121 84 315 186 377
199 18 4 36 11 39 17 14 22 -73 -5 -171 -53 -154 -76 -220 -118 -369 -231 -50
-37 -91 -66 -93 -64 -2 1 9 25 24 52 55 98 125 152 380 293 131 72 306 133
443 155 182 29 628 5 830 -45 144 -36 352 -151 394 -218 25 -40 56 -125 56
-154 0 -32 -38 -75 -73 -82 -17 -4 -37 -12 -44 -17 -6 -5 -23 -11 -37 -13 -14
-3 -54 -10 -89 -16 -55 -10 -363 -13 -427 -5 -30 4 -174 17 -227 20 -21 2 -65
17 -98 34 -109 55 -164 72 -280 86 -22 3 -84 10 -139 17 -128 15 -260 5 -356
-27 -8 -3 -16 -5 -18 -4 -1 0 -15 -6 -30 -14 -38 -22 -163 -76 -173 -76 -5 0
-32 -16 -59 -35 -27 -19 -52 -35 -54 -35 -18 0 -56 -55 -56 -80 0 -16 -4 -31
-9 -34 -8 -5 -33 -92 -36 -121 0 -5 -4 -23 -8 -40 -4 -16 -10 -41 -13 -55 -3
-14 -7 -105 -10 -203 l-5 -178 41 -174 c22 -95 44 -184 50 -197 5 -13 21 -66
36 -118 15 -57 56 -157 101 -249 65 -132 77 -164 85 -230 17 -151 21 -260 10
-303 -6 -24 -16 -68 -23 -98 -6 -30 -17 -77 -25 -105 -33 -126 -38 -139 -64
-146 -120 -34 -432 -240 -419 -277 2 -7 18 2 39 21 93 88 360 251 379 231 3
-3 -24 -34 -61 -69 -37 -35 -76 -81 -87 -102 -19 -38 -29 -132 -18 -163 3 -8
15 -49 27 -90 37 -126 60 -159 211 -307 77 -76 173 -178 212 -227 87 -108 179
-173 289 -205 40 -11 94 -27 119 -35 26 -7 75 -13 111 -12 57 1 73 7 135 44
77 47 187 149 235 221 17 25 59 82 93 126 34 44 67 89 73 100 33 64 93 230 96
267 5 63 33 180 51 214 8 16 15 49 15 73 l0 43 38 -7 c64 -13 242 -5 275 12
17 8 61 28 99 43 79 32 99 30 202 -22 33 -17 84 -36 115 -44 80 -20 142 -50
254 -121 59 -39 97 -57 97 -49 0 16 -135 105 -220 147 -31 15 -85 35 -120 44
-36 10 -95 33 -132 52 -37 18 -76 33 -86 33 -16 0 -18 7 -14 68 6 102 36 213
65 237 36 29 60 83 53 117 -5 23 1 38 27 70 28 35 32 48 32 97 0 33 -7 71 -18
93 -25 52 -15 87 24 86 43 -1 123 39 142 72 24 40 21 78 -13 140 -17 30 -42
80 -57 110 -14 30 -43 82 -64 115 -20 33 -40 70 -43 82 -4 13 -23 48 -42 80
-58 96 -50 121 83 279 42 50 43 53 43 120 0 38 -4 85 -9 104 -56 219 -88 318
-130 399 -10 20 -25 49 -32 65 -8 16 -32 50 -55 75 l-41 45 39 36 c28 27 38
45 38 68 0 48 -49 153 -93 199 -47 49 -245 155 -343 183 -110 32 -297 55 -526
65 -73 4 -137 8 -143 9 -5 1 -35 -1 -65 -5z m-274 -447 c6 -4 14 -14 17 -22 4
-12 6 -11 6 3 1 9 6 17 11 17 6 0 11 -8 11 -17 1 -16 2 -16 6 0 5 18 5 18 19
0 8 -12 13 -13 14 -5 0 7 5 10 10 7 8 -5 7 -11 -1 -21 -6 -8 -9 -18 -5 -21 4
-4 11 -1 16 7 7 10 10 11 10 3 0 -7 5 -13 10 -13 6 0 5 8 -2 20 -7 10 -8 23
-4 27 5 4 11 3 13 -3 2 -6 20 -9 42 -7 32 3 39 1 37 -13 0 -10 8 -18 22 -20
13 -2 22 1 22 9 0 9 3 8 9 -2 6 -9 10 -10 16 -2 5 9 11 9 22 -1 9 -7 18 -12
20 -10 9 7 33 1 28 -8 -3 -5 -12 -7 -20 -3 -10 3 -15 -1 -15 -11 0 -11 7 -16
18 -14 11 2 18 -4 20 -19 2 -13 8 -23 14 -23 6 0 8 12 4 30 -6 32 -4 33 32 24
17 -5 21 -11 17 -25 -4 -11 -2 -19 4 -19 6 0 11 5 11 10 0 6 11 3 24 -6 16
-10 23 -21 19 -32 -4 -13 -2 -13 9 2 15 19 57 23 143 11 17 -2 98 -6 180 -10
83 -4 167 -8 187 -10 41 -4 226 18 301 36 48 11 49 11 84 -22 35 -34 116 -184
154 -283 29 -78 76 -273 84 -348 l7 -65 -50 -57 c-80 -91 -125 -162 -124 -194
1 -28 37 -101 196 -399 42 -78 76 -149 76 -157 0 -8 -7 -30 -16 -49 -17 -35
-73 -67 -120 -67 -66 0 -81 -46 -44 -129 11 -24 18 -46 16 -49 -3 -2 -32 -6
-66 -8 -39 -2 -70 -10 -84 -21 -150 -117 -179 -136 -209 -137 -55 -2 -83 -36
-31 -36 16 0 44 -14 68 -34 69 -56 108 -76 152 -76 l41 0 -20 -57 c-10 -32
-22 -95 -24 -140 -6 -91 -11 -98 -88 -123 -22 -7 -60 -23 -85 -35 -40 -20 -59
-22 -170 -20 -123 2 -166 10 -310 58 -25 8 -94 28 -154 44 -113 29 -154 51
-302 157 -105 76 -222 184 -249 230 -21 38 -54 139 -93 291 -25 98 -22 91 -32
75 -11 -18 -7 -36 32 -160 17 -52 32 -106 35 -119 16 -90 122 -217 258 -308
33 -23 71 -53 84 -67 14 -14 28 -26 33 -26 4 0 29 -13 55 -29 27 -16 64 -34
83 -40 67 -21 175 -50 209 -56 18 -3 50 -14 71 -25 31 -16 62 -25 103 -29 15
-2 6 -92 -12 -133 -11 -24 -27 -77 -35 -118 -8 -41 -20 -101 -26 -133 -25
-126 -102 -257 -287 -490 -78 -98 -237 -207 -301 -207 -26 0 -187 37 -264 60
-69 20 -179 104 -240 182 -63 79 -124 144 -267 283 -98 95 -119 127 -158 240
-56 165 -44 229 64 345 43 45 84 91 91 101 13 19 61 190 68 243 2 17 11 56 20
88 13 46 15 82 10 171 -12 209 -18 235 -85 370 -33 68 -61 133 -61 145 0 11
-5 22 -12 24 -9 3 -9 6 0 12 7 4 14 -3 18 -19 3 -14 11 -25 16 -25 6 0 7 11 4
28 l-7 27 17 -25 c10 -14 21 -27 26 -30 4 -3 16 -35 27 -71 23 -72 36 -87 155
-172 86 -62 104 -66 206 -47 68 13 92 34 88 77 -2 18 -7 32 -13 31 -5 -2 -9
-17 -7 -34 3 -28 -1 -33 -30 -43 -18 -7 -61 -15 -94 -18 l-61 -6 -101 77 c-97
73 -101 79 -121 139 -21 60 -47 106 -111 192 -47 63 -54 103 -29 160 39 88
130 155 211 155 34 0 114 -42 172 -90 26 -22 58 -40 70 -40 46 0 89 -45 140
-145 42 -83 49 -107 50 -158 1 -75 17 -83 47 -25 12 24 38 63 59 88 83 101
157 264 190 415 7 33 17 65 21 70 9 14 74 279 94 390 9 50 27 135 41 190 31
129 38 188 22 183 -7 -3 -13 -15 -13 -28 0 -13 -6 -25 -12 -27 -9 -3 -11 4 -6
28 4 23 3 30 -5 25 -7 -4 -12 -16 -12 -27 0 -10 -4 -19 -9 -19 -5 0 -7 8 -4
19 4 15 -1 19 -21 19 -28 0 -33 -16 -15 -50 9 -16 13 -18 20 -7 4 7 11 10 16
6 4 -5 3 -11 -3 -15 -14 -9 -27 -72 -15 -72 5 0 12 15 16 33 4 17 9 26 12 20
8 -22 21 -14 15 9 -3 14 -2 19 6 14 19 -11 14 -32 -10 -50 -16 -12 -19 -18
-10 -22 13 -6 17 -25 5 -23 -19 3 -25 -2 -15 -14 11 -13 10 -30 -2 -58 -4 -9
-9 -29 -11 -45 -2 -16 -4 -31 -5 -34 -2 -3 -2 -9 -1 -14 1 -5 -4 -13 -11 -18
-10 -6 -10 -10 2 -18 12 -8 13 -11 1 -19 -7 -5 -22 -6 -32 -4 -14 4 -19 0 -18
-13 4 -36 -4 -109 -8 -86 -5 28 -23 29 -23 1 0 -11 -4 -18 -8 -15 -5 3 -7 18
-4 34 2 16 -1 33 -7 36 -17 11 -13 -65 4 -88 9 -12 15 -15 15 -7 0 10 3 11 14
2 11 -9 15 -9 19 1 9 27 19 -2 13 -37 -5 -26 -11 -35 -22 -31 -8 3 -14 -1 -14
-9 0 -8 4 -15 8 -15 5 0 7 -14 4 -30 -3 -25 -7 -28 -18 -19 -11 9 -14 8 -14
-5 0 -9 5 -16 10 -16 12 0 2 -52 -12 -61 -5 -3 -6 -13 -2 -22 4 -12 1 -17 -10
-17 -9 0 -16 -4 -16 -10 0 -5 4 -10 9 -10 5 0 3 -21 -4 -47 -7 -27 -17 -47
-24 -46 -6 2 -11 -4 -11 -13 0 -9 5 -12 12 -8 7 4 8 3 4 -5 -4 -6 -12 -8 -18
-5 -6 4 -8 -1 -3 -15 5 -18 2 -24 -14 -28 -12 -3 -21 -12 -21 -19 0 -8 -4 -14
-10 -14 -5 0 -10 8 -10 18 -1 16 -1 16 -11 -1 -13 -21 -7 -30 21 -32 13 -1 20
5 20 17 0 10 5 18 10 18 13 0 13 2 -6 -53 -9 -26 -20 -44 -25 -41 -5 3 -9 -2
-9 -10 0 -9 -4 -16 -10 -16 -5 0 -10 6 -10 14 0 8 -4 17 -9 20 -5 3 -7 -9 -6
-27 4 -44 4 -44 15 -27 6 10 10 11 10 3 0 -7 -10 -23 -22 -35 l-23 -23 -3 23
c-6 43 -24 23 -19 -23 2 -25 0 -48 -4 -51 -5 -3 -9 2 -9 10 0 9 -5 16 -11 16
-6 0 -9 -7 -6 -15 4 -8 2 -17 -3 -20 -6 -4 -10 9 -10 29 0 39 -19 51 -21 14
l-2 -23 -4 23 c-2 12 -9 22 -15 22 -5 0 -8 -7 -4 -15 3 -8 1 -15 -4 -15 -6 0
-10 7 -10 15 0 8 -4 15 -8 15 -11 0 -44 81 -37 88 3 3 5 0 5 -6 0 -24 19 -11
25 18 4 17 11 30 16 30 5 0 7 -11 3 -25 -5 -21 -3 -24 12 -18 13 5 16 3 12 -8
-16 -43 -19 -59 -9 -59 11 0 15 13 26 84 5 28 9 35 15 26 5 -8 6 -19 2 -24 -3
-6 -7 -17 -7 -26 -1 -8 -5 -25 -9 -37 -5 -14 -3 -23 3 -23 6 0 11 9 11 20 0
11 5 20 11 20 6 0 8 -9 4 -20 -3 -11 -2 -20 3 -20 5 0 9 6 9 13 0 6 4 24 8 40
8 30 -10 39 -19 10 -3 -10 -3 -1 0 20 3 22 1 37 -6 37 -14 0 -13 37 2 46 7 5
9 2 6 -8 -4 -8 -2 -21 3 -29 7 -12 9 -12 9 0 0 11 3 11 16 0 9 -8 13 -21 10
-35 -4 -13 -2 -25 3 -28 8 -5 17 24 37 122 3 16 10 22 19 18 8 -3 15 -1 15 4
0 6 -6 10 -14 10 -9 0 -12 7 -9 20 3 11 0 20 -6 20 -6 0 -12 -8 -12 -17 -3
-42 -8 -70 -19 -93 -9 -22 -10 -23 -6 -3 2 13 0 26 -5 29 -5 3 -9 -2 -9 -10 0
-9 -4 -16 -10 -16 -5 0 -10 6 -10 14 0 17 -33 27 -51 15 -10 -6 -11 -9 -1 -9
17 0 15 -41 -4 -65 -14 -18 -14 -18 -10 10 2 17 1 24 -1 18 -7 -20 -25 -15
-19 5 14 49 17 102 4 102 -9 0 -12 13 -10 45 3 27 0 45 -6 45 -6 0 -11 -18
-10 -39 0 -22 -3 -44 -6 -50 -4 -6 -9 -24 -11 -41 -3 -27 -7 -48 -21 -102 -1
-5 -2 -11 -3 -15 0 -3 -3 -4 -6 -1 -3 2 4 47 15 98 22 103 25 150 10 150 -5 0
-10 -13 -10 -30 0 -20 -5 -30 -15 -30 -8 0 -15 -7 -15 -15 0 -8 -4 -15 -9 -15
-4 0 -6 12 -3 26 3 16 9 23 18 20 10 -4 14 2 14 19 0 26 -15 34 -23 13 -3 -8
-6 -6 -6 5 -1 9 -6 17 -12 17 -5 0 -8 4 -5 9 3 4 17 7 31 6 14 -2 25 0 25 4 0
4 -15 8 -33 9 l-32 1 1 -77 c1 -42 4 -76 8 -74 3 1 12 2 20 2 7 0 16 10 19 22
4 12 9 20 12 16 3 -3 1 -17 -4 -32 -9 -22 -16 -26 -44 -24 -32 3 -34 4 -26 33
12 47 -2 135 -22 135 -12 0 -11 -17 1 -25 14 -8 13 -75 -2 -130 -9 -33 -17
-45 -31 -45 -17 0 -18 5 -13 35 4 21 3 35 -3 35 -5 0 -11 -9 -13 -20 -4 -27
-20 -28 -33 -3 -6 11 -15 18 -22 16 -6 -2 -14 1 -18 6 -3 6 -1 11 4 11 6 0 11
7 11 15 0 8 -4 15 -10 15 -5 0 -10 7 -10 15 0 8 5 15 10 15 6 0 10 -4 10 -10
0 -5 6 -10 14 -10 8 0 14 9 13 19 0 11 -6 19 -11 18 -6 -1 -12 8 -14 21 -2 12
-8 22 -14 22 -5 0 -8 -7 -5 -15 4 -8 2 -17 -3 -20 -6 -4 -10 3 -10 14 0 12 -4
21 -9 21 -4 0 -6 -11 -3 -25 2 -15 0 -25 -7 -25 -6 0 -11 12 -11 28 0 32 -16
60 -27 48 -4 -5 -3 -11 3 -13 13 -4 6 -44 -9 -54 -6 -4 -5 -14 3 -25 10 -16
11 -16 6 -1 -7 22 10 22 18 0 6 -15 8 -15 16 -3 8 12 10 9 10 -11 l0 -27 -35
16 c-24 11 -36 24 -40 44 -3 15 -8 42 -11 58 -3 17 -10 30 -15 30 -11 0 -12
-14 -1 -24 4 -4 7 -25 8 -45 0 -28 -4 -38 -15 -38 -20 0 -31 15 -31 45 0 12
-5 22 -11 22 -8 0 -10 -13 -6 -37 5 -28 4 -34 -4 -20 -14 24 -32 22 -19 -3 7
-12 7 -20 1 -20 -5 0 -12 8 -15 18 -6 17 -46 26 -46 10 0 -4 -9 1 -20 12 -22
22 -40 19 -40 -7 0 -13 2 -14 17 -2 14 12 16 12 11 -1 -16 -44 -18 -59 -8 -65
6 -4 10 6 10 24 0 29 19 46 21 19 0 -9 2 -9 5 -2 5 13 44 7 44 -6 0 -11 -37
-23 -49 -16 -5 3 -11 -2 -13 -12 -3 -10 -13 -19 -22 -19 -12 0 -16 10 -16 36
0 51 -17 26 -23 -34 -8 -80 -17 -105 -38 -105 -10 0 -19 7 -19 15 0 8 -7 15
-16 15 -9 0 -14 6 -11 13 3 7 -1 21 -9 31 -7 11 -11 30 -7 47 3 18 -2 44 -17
73 -14 29 -19 53 -15 67 5 13 3 19 -3 15 -5 -3 -10 4 -9 17 0 12 -3 35 -8 51
-7 26 -6 28 14 21 15 -4 21 -2 21 8 0 8 -9 17 -21 20 -18 5 -20 11 -15 48 3
23 11 48 17 56 7 7 9 16 5 20 -3 3 -6 1 -6 -5 0 -7 -4 -12 -9 -12 -5 0 -7 24
-5 53 3 28 5 62 5 74 1 12 4 22 8 21 21 -2 41 3 41 13 0 5 -4 8 -9 5 -5 -4
-15 -4 -23 -1 -12 5 -12 18 3 88 23 110 38 159 55 178 8 8 14 21 14 27 0 6 7
9 17 5 13 -5 15 -2 11 15 -4 12 -2 22 3 22 5 0 9 8 9 17 0 15 2 14 16 -3 15
-19 15 -18 11 4 -5 21 2 26 29 23 7 -1 14 8 17 19 3 12 13 20 25 20 15 0 19
-5 15 -20 -3 -11 -1 -20 5 -20 6 0 13 14 17 30 4 17 15 35 25 40 27 14 32 12
25 -9 -3 -11 -1 -22 5 -26 6 -4 10 5 10 23 0 21 7 32 25 40 23 10 25 9 26 -11
1 -20 1 -20 10 4 6 15 19 29 31 32 19 5 20 3 14 -44 -4 -31 -3 -49 4 -49 5 0
10 4 10 10 0 5 7 7 15 4 10 -4 15 0 15 11 0 11 5 15 15 11 8 -3 15 -1 15 5 0
5 8 9 18 7 11 -2 18 4 20 20 4 23 -13 31 -21 10 -3 -7 -6 -3 -6 9 -1 16 3 21
14 17 8 -4 15 -1 15 5 0 6 -10 12 -22 12 -18 1 -16 3 7 8 41 9 238 12 251 3z
m-286 -44 c0 -36 -4 -35 -14 5 -4 16 -2 27 4 27 5 0 10 -14 10 -32z m-30 -24
c0 -19 -4 -34 -9 -34 -5 0 -8 18 -7 39 1 48 16 44 16 -5z m710 -154 c0 -5 -4
-10 -10 -10 -5 0 -10 5 -10 10 0 6 5 10 10 10 6 0 10 -4 10 -10z m-27 -417
c-2 -27 -6 -49 -8 -51 -7 -8 -10 58 -3 77 12 34 17 24 11 -26z m-981 -495 c-7
-7 -12 -8 -12 -2 0 14 12 26 19 19 2 -3 -1 -11 -7 -17z m613 13 c3 -5 1 -12
-5 -16 -5 -3 -10 1 -10 9 0 18 6 21 15 7z m-138 -63 c-3 -7 -5 -2 -5 12 0 14
2 19 5 13 2 -7 2 -19 0 -25z m43 22 c0 -5 -4 -10 -10 -10 -5 0 -10 5 -10 10 0
6 5 10 10 10 6 0 10 -4 10 -10z m90 0 c0 -5 -4 -10 -10 -10 -5 0 -10 5 -10 10
0 6 5 10 10 10 6 0 10 -4 10 -10z m-79 -51 c-9 -22 -10 -22 -10 -3 -1 11 2 24
6 27 12 12 14 0 4 -24z m60 0 c-5 -13 -10 -19 -10 -12 -1 15 10 45 15 40 3 -2
0 -15 -5 -28z m-651 -20 c0 -5 -4 -9 -10 -9 -5 0 -10 7 -10 16 0 8 5 12 10 9
6 -3 10 -10 10 -16z m30 -133 c0 -3 -4 -8 -10 -11 -5 -3 -10 -1 -10 4 0 6 5
11 10 11 6 0 10 -2 10 -4z m20 -51 c0 -33 -15 -33 -16 0 -1 14 2 25 7 25 5 0
9 -11 9 -25z m670 1 c0 -3 -4 -8 -10 -11 -5 -3 -10 -1 -10 4 0 6 5 11 10 11 6
0 10 -2 10 -4z m-8 -93 c-9 -26 -22 -12 -18 20 7 52 8 53 15 22 4 -16 5 -36 3
-42z m1503 -473 c3 5 11 10 17 10 19 0 -1 -63 -29 -92 -22 -23 -35 -28 -68
-26 -25 1 -52 -6 -66 -15 -23 -17 -109 -24 -122 -11 -3 4 11 18 31 31 20 14
58 42 83 63 46 39 109 56 136 37 6 -4 14 -3 18 3z m-49 -142 c14 -19 9 -64
-10 -92 -14 -23 -23 -26 -72 -26 -62 0 -80 7 -142 58 -52 42 -44 52 38 45 41
-4 65 -1 86 10 35 19 88 22 100 5z"/>
<path d="M865 3920 c-3 -5 -3 -21 1 -35 5 -18 9 -23 14 -14 5 7 6 19 3 28 -4
14 -3 14 5 1 10 -15 16 -64 13 -112 -1 -21 -6 -28 -22 -28 -16 0 -19 -4 -14
-20 5 -16 2 -20 -14 -20 -12 0 -21 -5 -21 -10 0 -6 7 -10 16 -8 12 2 17 -6 19
-30 3 -36 15 -55 22 -34 4 10 8 10 21 0 13 -11 15 -10 9 5 -4 10 -7 25 -7 33
0 8 -5 14 -11 14 -6 0 -9 -7 -5 -15 3 -8 1 -15 -4 -15 -6 0 -10 18 -10 41 0
32 3 40 15 35 8 -3 15 -2 16 2 0 4 3 18 5 32 3 14 2 53 -1 87 -5 49 -10 62
-26 66 -10 3 -21 1 -24 -3z"/>
<path d="M946 3911 c-3 -9 -9 -23 -12 -31 -5 -13 -4 -13 5 0 14 21 22 9 24
-39 1 -22 5 -41 10 -41 11 0 6 69 -6 94 -8 15 -6 18 7 13 9 -4 16 -3 16 2 0
17 -38 19 -44 2z"/>
<path d="M801 3880 c0 -40 2 -42 11 -22 8 16 8 28 0 45 -9 19 -11 17 -11 -23z"/>
<path d="M834 3895 c0 -14 4 -25 9 -25 10 0 9 38 -2 44 -5 3 -8 -5 -7 -19z"/>
<path d="M1003 3897 c-13 -27 -15 -67 -3 -67 5 0 8 14 8 30 -1 17 2 33 5 37 4
3 7 -1 7 -10 0 -9 5 -17 10 -17 13 0 12 11 -4 32 -12 16 -14 16 -23 -5z"/>
<path d="M1080 3874 c0 -8 5 -12 10 -9 6 3 10 10 10 16 0 5 -4 9 -10 9 -5 0
-10 -7 -10 -16z"/>
<path d="M1175 3880 c3 -5 8 -10 11 -10 2 0 4 5 4 10 0 6 -5 10 -11 10 -5 0
-7 -4 -4 -10z"/>
<path d="M1205 3880 c3 -5 8 -10 11 -10 2 0 4 5 4 10 0 6 -5 10 -11 10 -5 0
-7 -4 -4 -10z"/>
<path d="M648 3853 c-2 -42 -3 -47 -12 -61 -8 -14 -1 -30 9 -20 10 10 22 108
14 108 -5 0 -10 -12 -11 -27z"/>
<path d="M851 3860 c-9 -21 -10 -90 -2 -90 6 0 11 9 11 20 0 11 5 20 11 20 6
0 8 -9 4 -22 -5 -18 -4 -20 4 -8 14 20 14 70 0 70 -5 0 -8 -4 -4 -9 3 -5 1
-12 -4 -15 -5 -4 -12 4 -14 16 -2 13 -5 21 -6 18z"/>
<path d="M937 3853 c-11 -10 -8 -83 3 -83 6 0 10 20 10 45 0 46 -2 50 -13 38z"/>
<path d="M1020 3845 c0 -8 5 -15 10 -15 6 0 10 7 10 15 0 8 -4 15 -10 15 -5 0
-10 -7 -10 -15z"/>
<path d="M1050 3851 c0 -6 5 -13 10 -16 6 -3 10 1 10 9 0 9 -4 16 -10 16 -5 0
-10 -4 -10 -9z"/>
<path d="M1190 3850 c0 -5 5 -10 10 -10 6 0 10 5 10 10 0 6 -4 10 -10 10 -5 0
-10 -4 -10 -10z"/>
<path d="M1220 3844 c0 -8 5 -12 10 -9 6 4 8 11 5 16 -9 14 -15 11 -15 -7z"/>
<path d="M1255 3815 c0 -33 4 -45 15 -45 12 0 12 2 2 9 -10 6 -10 10 3 21 12
10 15 10 15 -1 0 -8 3 -10 10 -3 11 11 2 54 -11 54 -5 0 -6 -7 -3 -15 4 -8 1
-15 -5 -15 -6 0 -11 9 -11 20 0 11 -3 20 -7 20 -5 0 -8 -20 -8 -45z"/>
<path d="M1310 3845 c0 -8 5 -15 10 -15 6 0 10 7 10 15 0 8 -4 15 -10 15 -5 0
-10 -7 -10 -15z"/>
<path d="M1086 3834 c-10 -25 -7 -34 8 -28 10 4 12 -2 8 -22 -3 -19 -1 -25 7
-20 6 4 11 21 11 38 0 22 -4 29 -14 25 -10 -4 -13 -1 -9 9 3 7 3 14 0 14 -3 0
-8 -7 -11 -16z"/>
<path d="M1133 3818 c0 -18 -1 -51 -3 -73 -4 -60 -1 -85 9 -85 5 0 6 21 3 48
-5 42 -3 46 11 34 20 -17 30 -1 18 30 -7 17 -10 18 -10 6 -1 -10 -5 -18 -11
-18 -6 0 -7 18 -3 45 3 26 2 45 -4 45 -5 0 -10 -15 -10 -32z"/>
<path d="M1160 3831 c0 -11 5 -23 10 -26 6 -4 10 5 10 19 0 14 -4 26 -10 26
-5 0 -10 -9 -10 -19z"/>
<path d="M514 3793 c-5 -21 -15 -38 -21 -38 -7 0 -13 -3 -13 -7 0 -5 2 -8 5
-8 3 0 11 0 19 0 7 0 16 9 19 20 3 13 10 18 21 14 11 -4 16 -1 16 11 0 11 -5
15 -16 11 -12 -4 -14 -1 -9 14 4 11 2 20 -3 20 -4 0 -13 -17 -18 -37z"/>
<path d="M580 3820 c0 -5 5 -10 10 -10 6 0 10 5 10 10 0 6 -4 10 -10 10 -5 0
-10 -4 -10 -10z"/>
<path d="M818 3824 c-5 -4 -8 -21 -8 -38 0 -21 3 -27 11 -19 6 6 9 23 7 38 -2
15 -6 23 -10 19z"/>
<path d="M1410 3816 c0 -8 5 -18 10 -21 6 -3 10 1 10 9 0 8 -4 18 -10 21 -5 3
-10 -1 -10 -9z"/>
<path d="M610 3810 c0 -5 5 -10 10 -10 6 0 10 5 10 10 0 6 -4 10 -10 10 -5 0
-10 -4 -10 -10z"/>
<path d="M757 3813 c-4 -3 -7 -16 -6 -27 0 -19 1 -19 10 3 10 24 8 36 -4 24z"/>
<path d="M780 3795 c0 -14 5 -25 10 -25 6 0 10 11 10 25 0 14 -4 25 -10 25 -5
0 -10 -11 -10 -25z"/>
<path d="M995 3810 c3 -5 8 -10 11 -10 2 0 4 5 4 10 0 6 -5 10 -11 10 -5 0 -7
-4 -4 -10z"/>
<path d="M1050 3805 c0 -16 -7 -18 -57 -15 -32 1 -45 -13 -20 -23 7 -3 5 -6
-5 -6 -10 -1 -18 -9 -18 -18 0 -14 2 -15 9 -4 6 9 11 10 15 3 4 -6 13 -9 21
-5 10 3 15 -1 13 -13 -3 -35 2 -64 10 -64 5 0 7 25 4 55 -3 37 -1 55 7 55 6 0
11 -9 11 -20 0 -11 4 -20 8 -20 5 0 9 20 9 45 0 25 -2 45 -4 45 -1 0 -3 -7 -3
-15z m-40 -39 c0 -3 -4 -8 -10 -11 -5 -3 -10 -1 -10 4 0 6 5 11 10 11 6 0 10
-2 10 -4z"/>
<path d="M1195 3810 c3 -5 8 -10 11 -10 2 0 4 5 4 10 0 6 -5 10 -11 10 -5 0
-7 -4 -4 -10z"/>
<path d="M1223 3793 c0 -16 1 -20 4 -10 2 9 9 17 14 17 6 0 7 5 4 10 -11 18
-21 10 -22 -17z"/>
<path d="M1350 3800 c0 -11 -5 -19 -11 -17 -6 1 -14 -4 -17 -12 -3 -10 0 -12
12 -8 22 9 37 -30 23 -61 -9 -20 -4 -42 8 -30 5 5 8 57 5 116 -1 34 -20 46
-20 12z"/>
<path d="M705 3790 c-21 -9 -21 -9 12 -16 17 -3 21 0 17 11 -4 8 -7 15 -8 14
0 0 -10 -4 -21 -9z"/>
<path d="M450 3780 c0 -5 5 -10 10 -10 6 0 10 5 10 10 0 6 -4 10 -10 10 -5 0
-10 -4 -10 -10z"/>
<path d="M567 3768 c-6 -21 -2 -36 7 -27 10 11 16 49 8 49 -5 0 -12 -10 -15
-22z"/>
<path d="M600 3780 c0 -5 5 -10 10 -10 6 0 10 5 10 10 0 6 -4 10 -10 10 -5 0
-10 -4 -10 -10z"/>
<path d="M665 3780 c3 -5 8 -10 11 -10 2 0 4 5 4 10 0 6 -5 10 -11 10 -5 0 -7
-4 -4 -10z"/>
<path d="M1072 3760 c0 -19 2 -27 5 -17 2 9 2 25 0 35 -3 9 -5 1 -5 -18z"/>
<path d="M1188 3785 c-8 -9 2 -45 13 -45 5 0 9 -4 9 -10 0 -5 -7 -10 -15 -10
-8 0 -15 -4 -15 -10 0 -5 7 -7 15 -4 8 4 15 1 15 -5 0 -6 -9 -11 -20 -11 -11
0 -20 7 -20 15 0 8 -4 15 -9 15 -5 0 -5 -12 1 -28 15 -38 45 -39 53 -1 9 41
20 36 21 -11 0 -40 9 -59 20 -47 4 4 1 13 -6 22 -8 9 -9 15 -2 15 6 0 15 -8
21 -17 5 -10 13 -14 18 -9 4 5 2 11 -4 13 -17 6 -16 35 2 59 11 15 14 16 15 4
0 -9 -5 -21 -11 -27 -7 -7 -7 -13 -1 -17 6 -3 13 3 17 14 9 27 24 25 19 -2 -3
-13 3 -6 12 15 16 37 12 65 -6 37 -7 -10 -10 -11 -10 -3 0 17 -39 11 -51 -8
-7 -11 -9 -11 -9 0 0 7 -6 11 -13 8 -19 -7 -34 4 -44 31 -5 13 -11 20 -15 17z
m76 -90 c-4 -8 -10 -15 -15 -15 -4 0 -6 7 -3 15 4 8 10 15 15 15 4 0 6 -7 3
-15z"/>
<path d="M1290 3770 c0 -5 5 -10 10 -10 6 0 10 5 10 10 0 6 -4 10 -10 10 -5 0
-10 -4 -10 -10z"/>
<path d="M1385 3771 c-3 -5 -1 -12 5 -16 5 -3 10 1 10 9 0 18 -6 21 -15 7z"/>
<path d="M1410 3770 c0 -5 5 -10 10 -10 6 0 10 5 10 10 0 6 -4 10 -10 10 -5 0
-10 -4 -10 -10z"/>
<path d="M1445 3770 c3 -5 8 -10 11 -10 2 0 4 5 4 10 0 6 -5 10 -11 10 -5 0
-7 -4 -4 -10z"/>
<path d="M1470 3770 c0 -5 5 -10 10 -10 6 0 10 5 10 10 0 6 -4 10 -10 10 -5 0
-10 -4 -10 -10z"/>
<path d="M446 3751 c-4 -7 -5 -15 -2 -18 9 -9 19 4 14 18 -4 11 -6 11 -12 0z"/>
<path d="M530 3746 c0 -9 5 -16 10 -16 6 0 10 4 10 9 0 6 -4 13 -10 16 -5 3
-10 -1 -10 -9z"/>
<path d="M596 3751 c-4 -7 -5 -15 -2 -18 9 -9 19 4 14 18 -4 11 -6 11 -12 0z"/>
<path d="M630 3751 c0 -9 33 -21 58 -21 6 0 12 6 12 13 0 7 -15 13 -35 14 -19
2 -35 -1 -35 -6z"/>
<path d="M719 3753 c-1 -5 -2 -12 -4 -18 -1 -5 -3 -20 -3 -33 -1 -13 -7 -20
-12 -17 -6 4 -8 10 -5 15 3 5 1 11 -5 15 -6 4 -8 -14 -4 -52 7 -67 26 -100 21
-36 -2 23 0 40 5 37 4 -3 8 -4 9 -2 5 24 9 98 5 98 -3 0 -7 -3 -7 -7z"/>
<path d="M750 3745 c0 -8 5 -15 10 -15 6 0 10 7 10 15 0 8 -4 15 -10 15 -5 0
-10 -7 -10 -15z"/>
<path d="M780 3744 c0 -8 5 -12 10 -9 6 4 8 11 5 16 -9 14 -15 11 -15 -7z"/>
<path d="M841 3744 c0 -11 3 -14 6 -6 3 7 2 16 -1 19 -3 4 -6 -2 -5 -13z"/>
<path d="M415 3740 c3 -5 8 -10 11 -10 2 0 4 5 4 10 0 6 -5 10 -11 10 -5 0 -7
-4 -4 -10z"/>
<path d="M807 3726 c-4 -15 -6 -31 -2 -34 10 -10 16 6 13 35 l-3 28 -8 -29z"/>
<path d="M1101 3738 c-1 -11 -9 -18 -22 -18 -16 0 -19 -4 -14 -22 12 -37 29
-48 21 -13 l-6 30 16 -28 c20 -37 23 -32 14 23 -4 25 -8 37 -9 28z"/>
<path d="M370 3705 c0 -8 5 -15 10 -15 6 0 10 7 10 15 0 8 -4 15 -10 15 -5 0
-10 -7 -10 -15z"/>
<path d="M409 3713 c-1 -2 -2 -6 -3 -10 -1 -5 -4 -13 -8 -19 -8 -12 1 -54 11
-54 3 0 6 15 6 33 0 24 4 32 18 31 9 -1 17 4 17 11 0 11 -37 18 -41 8z"/>
<path d="M490 3711 c0 -6 5 -13 10 -16 6 -3 10 1 10 9 0 9 -4 16 -10 16 -5 0
-10 -4 -10 -9z"/>
<path d="M523 3700 c4 -16 0 -20 -18 -20 -18 0 -21 -4 -17 -25 5 -26 21 -35
18 -11 0 8 3 15 8 15 5 -1 13 5 17 13 12 19 11 48 -2 48 -6 0 -9 -9 -6 -20z"/>
<path d="M552 3709 c2 -6 8 -10 13 -10 5 0 11 4 13 10 2 6 -4 11 -13 11 -9 0
-15 -5 -13 -11z"/>
<path d="M650 3710 c0 -5 5 -10 11 -10 5 0 7 5 4 10 -3 6 -8 10 -11 10 -2 0
-4 -4 -4 -10z"/>
<path d="M747 3680 c10 -73 24 -103 18 -42 -2 28 -9 60 -15 70 -7 13 -8 5 -3
-28z"/>
<path d="M770 3706 c0 -30 13 -76 22 -76 5 0 6 10 2 23 -5 12 -8 32 -7 45 0
12 -3 22 -8 22 -5 0 -9 -6 -9 -14z"/>
<path d="M915 3711 c-3 -5 -1 -12 5 -16 5 -3 10 1 10 9 0 18 -6 21 -15 7z"/>
<path d="M945 3710 c-3 -5 -1 -10 4 -10 6 0 11 5 11 10 0 6 -2 10 -4 10 -3 0
-8 -4 -11 -10z"/>
<path d="M970 3711 c0 -6 4 -12 10 -16 5 -3 7 -12 3 -20 -3 -8 0 -15 6 -15 12
0 13 6 5 38 -6 21 -24 31 -24 13z"/>
<path d="M1030 3705 c0 -8 4 -15 9 -15 4 0 7 -13 5 -30 -2 -16 1 -32 6 -35 11
-7 13 37 4 73 -7 25 -24 30 -24 7z"/>
<path d="M465 3700 c3 -5 8 -10 11 -10 2 0 4 5 4 10 0 6 -5 10 -11 10 -5 0 -7
-4 -4 -10z"/>
<path d="M588 3694 c-15 -16 -13 -64 3 -64 5 0 6 12 3 26 -4 17 -2 29 7 35 7
4 11 10 8 13 -3 3 -12 -1 -21 -10z"/>
<path d="M620 3701 c0 -5 7 -17 16 -26 15 -15 15 -17 -5 -22 -33 -8 -25 -19
14 -19 26 0 34 4 30 14 -3 7 -5 17 -5 22 0 5 -9 12 -20 15 -11 4 -18 11 -15
16 4 5 1 9 -4 9 -6 0 -11 -4 -11 -9z"/>
<path d="M835 3663 c8 -31 13 -39 20 -31 9 9 -6 58 -17 58 -6 0 -7 -11 -3 -27z"/>
<path d="M956 3681 c-4 -7 -5 -15 -2 -18 9 -9 19 4 14 18 -4 11 -6 11 -12 0z"/>
<path d="M340 3651 c0 -16 -3 -38 -6 -48 -5 -16 -4 -16 11 2 9 11 23 19 32 17
11 -3 14 1 9 13 -3 9 -6 23 -6 31 0 8 -9 14 -20 14 -15 0 -20 -7 -20 -29z m25
9 c3 -5 1 -10 -4 -10 -6 0 -11 5 -11 10 0 6 2 10 4 10 3 0 8 -4 11 -10z"/>
<path d="M420 3670 c0 -5 5 -10 10 -10 6 0 10 5 10 10 0 6 -4 10 -10 10 -5 0
-10 -4 -10 -10z"/>
<path d="M460 3659 c0 -33 11 -69 20 -69 8 0 -6 80 -16 89 -2 2 -4 -7 -4 -20z"/>
<path d="M544 3663 c2 -10 7 -28 11 -41 8 -27 -10 -53 -31 -45 -9 3 -14 -1
-14 -11 0 -11 7 -16 18 -14 11 2 18 -4 20 -20 2 -12 7 -20 12 -17 5 3 7 19 3
35 -4 20 -1 30 7 30 7 0 10 -7 6 -15 -3 -8 -1 -15 4 -15 12 0 13 23 3 34 -5 4
-9 12 -9 17 -1 5 -3 11 -4 14 -4 9 -7 25 -9 45 0 11 -6 20 -12 20 -6 0 -8 -8
-5 -17z"/>
<path d="M605 3670 c3 -5 8 -10 11 -10 2 0 4 5 4 10 0 6 -5 10 -11 10 -5 0 -7
-4 -4 -10z"/>
<path d="M800 3670 c0 -5 5 -10 10 -10 6 0 10 5 10 10 0 6 -4 10 -10 10 -5 0
-10 -4 -10 -10z"/>
<path d="M720 3646 c0 -9 5 -16 10 -16 6 0 10 4 10 9 0 6 -4 13 -10 16 -5 3
-10 -1 -10 -9z"/>
<path d="M1303 3648 c3 -9 1 -18 -5 -20 -7 -3 -9 -11 -4 -24 8 -17 9 -16 17
11 6 19 5 33 -3 40 -8 7 -9 5 -5 -7z"/>
<path d="M1330 3650 c0 -5 5 -10 10 -10 6 0 10 5 10 10 0 6 -4 10 -10 10 -5 0
-10 -4 -10 -10z"/>
<path d="M1360 3644 c0 -8 5 -12 10 -9 6 3 10 10 10 16 0 5 -4 9 -10 9 -5 0
-10 -7 -10 -16z"/>
<path d="M1390 3644 c0 -8 5 -12 10 -9 6 3 10 10 10 16 0 5 -4 9 -10 9 -5 0
-10 -7 -10 -16z"/>
<path d="M430 3635 c0 -8 5 -15 10 -15 6 0 10 7 10 15 0 8 -4 15 -10 15 -5 0
-10 -7 -10 -15z"/>
<path d="M520 3634 c0 -8 5 -12 10 -9 6 4 8 11 5 16 -9 14 -15 11 -15 -7z"/>
<path d="M814 3635 c4 -10 -1 -15 -14 -15 -13 0 -18 -5 -14 -15 5 -11 10 -13
19 -5 6 5 15 7 18 3 4 -3 7 6 7 20 0 15 -5 27 -11 27 -6 0 -9 -7 -5 -15z"/>
<path d="M935 3639 c-4 -5 -1 -9 4 -9 17 0 13 -67 -5 -84 -8 -9 -11 -16 -5
-16 21 0 11 -18 -14 -24 -14 -4 -25 -12 -25 -18 0 -9 3 -9 12 0 20 20 40 15
33 -8 -3 -11 -2 -20 3 -20 5 0 12 23 16 50 4 28 11 50 16 50 5 0 7 -7 4 -15
-4 -8 -1 -15 5 -15 6 0 11 11 11 25 0 16 -6 25 -15 25 -23 0 -19 41 5 47 11 3
20 9 20 13 0 10 -59 10 -65 -1z"/>
<path d="M1070 3619 c0 -24 4 -30 15 -25 11 4 15 -2 15 -20 0 -17 -7 -28 -20
-31 -11 -3 -20 -12 -20 -19 0 -8 -5 -14 -11 -14 -6 0 -9 7 -5 15 3 8 2 15 -3
15 -13 0 -22 -73 -11 -84 7 -7 10 0 10 18 0 20 4 27 14 23 8 -3 16 2 18 11 3
10 15 18 27 19 21 2 22 -1 16 -35 -4 -20 -11 -42 -16 -49 -7 -7 -6 -14 1 -18
5 -3 10 -1 10 4 0 6 5 11 10 11 6 0 8 -12 5 -27 -4 -23 -4 -24 4 -8 5 11 6 43
3 72 -2 28 -1 60 3 70 11 28 14 103 4 103 -5 0 -9 -8 -9 -19 0 -13 -7 -18 -24
-18 -18 0 -22 4 -19 18 3 11 0 19 -6 19 -6 0 -11 -14 -11 -31z m56 -46 c-2
-15 -8 -29 -15 -31 -6 -2 -9 3 -6 12 3 9 7 23 10 31 7 24 14 17 11 -12z"/>
<path d="M1100 3641 c0 -6 5 -13 10 -16 6 -3 10 1 10 9 0 9 -4 16 -10 16 -5 0
-10 -4 -10 -9z"/>
<path d="M1163 3630 c-6 -21 -4 -30 5 -30 4 0 7 5 7 12 0 19 18 19 44 -1 14
-11 20 -21 13 -25 -6 -3 -18 2 -28 11 -17 17 -17 17 -11 1 3 -10 2 -20 -4 -23
-5 -4 -7 -11 -3 -16 4 -7 10 -6 18 0 18 15 56 2 56 -20 0 -11 5 -19 10 -19 6
0 10 6 10 13 0 9 2 9 8 0 14 -22 47 -8 50 20 2 15 -1 27 -7 27 -6 0 -11 -9
-11 -20 0 -11 -4 -20 -10 -20 -5 0 -10 9 -10 20 0 11 -5 20 -11 20 -6 0 -9 -7
-5 -15 3 -8 1 -15 -4 -15 -6 0 -10 7 -10 15 0 8 -6 14 -12 13 -8 -2 -12 6 -10
20 3 17 -2 22 -17 22 -12 0 -21 6 -21 14 0 20 -42 16 -47 -4z"/>
<path d="M1015 3630 c3 -5 8 -10 11 -10 2 0 4 5 4 10 0 6 -5 10 -11 10 -5 0
-7 -4 -4 -10z"/>
<path d="M1266 3621 c-4 -7 -5 -15 -2 -18 9 -9 19 4 14 18 -4 11 -6 11 -12 0z"/>
<path d="M300 3605 c0 -8 2 -15 4 -15 2 0 6 7 10 15 3 8 1 15 -4 15 -6 0 -10
-7 -10 -15z"/>
<path d="M590 3604 c0 -8 5 -12 10 -9 6 3 10 10 10 16 0 5 -4 9 -10 9 -5 0
-10 -7 -10 -16z"/>
<path d="M633 3613 c-24 -9 -13 -22 17 -21 18 1 30 6 30 15 0 13 -23 16 -47 6z"/>
<path d="M840 3605 c0 -8 5 -15 10 -15 6 0 10 7 10 15 0 8 -4 15 -10 15 -5 0
-10 -7 -10 -15z"/>
<path d="M910 3611 c0 -5 5 -13 10 -16 6 -3 10 -2 10 4 0 5 -4 13 -10 16 -5 3
-10 2 -10 -4z"/>
<path d="M1320 3611 c0 -15 18 -23 25 -11 4 6 11 8 16 5 5 -4 9 -1 9 4 0 6
-11 11 -25 11 -14 0 -25 -4 -25 -9z"/>
<path d="M380 3593 c0 -7 5 -13 10 -13 6 0 10 5 10 11 0 5 5 7 10 4 6 -3 10
-2 10 4 0 5 -9 9 -20 8 -11 -1 -20 -7 -20 -14z"/>
<path d="M440 3600 c0 -5 5 -10 11 -10 5 0 7 5 4 10 -3 6 -8 10 -11 10 -2 0
-4 -4 -4 -10z"/>
<path d="M493 3585 c-6 -14 -9 -34 -6 -45 9 -34 18 -22 19 25 1 25 1 45 0 45
0 0 -6 -11 -13 -25z"/>
<path d="M526 3595 c4 -8 10 -12 15 -9 14 8 10 24 -6 24 -9 0 -12 -6 -9 -15z"/>
<path d="M725 3600 c3 -5 8 -10 11 -10 2 0 4 5 4 10 0 6 -5 10 -11 10 -5 0 -7
-4 -4 -10z"/>
<path d="M977 3597 c3 -5 18 -7 34 -5 22 4 29 0 32 -16 4 -17 5 -16 6 5 1 23
-2 25 -38 25 -22 0 -37 -4 -34 -9z"/>
<path d="M420 3565 c0 -8 5 -15 10 -15 6 0 10 7 10 15 0 8 -4 15 -10 15 -5 0
-10 -7 -10 -15z"/>
<path d="M450 3565 c0 -8 5 -15 10 -15 6 0 10 7 10 15 0 8 -4 15 -10 15 -5 0
-10 -7 -10 -15z"/>
<path d="M604 3568 c-3 -4 1 -8 8 -9 68 -5 88 -3 88 7 0 12 -88 15 -96 2z"/>
<path d="M745 3570 c-3 -5 -1 -10 4 -10 6 0 11 5 11 10 0 6 -2 10 -4 10 -3 0
-8 -4 -11 -10z"/>
<path d="M779 3578 c-7 -23 -8 -58 -1 -58 9 0 21 32 22 53 0 6 -19 11 -21 5z"/>
<path d="M830 3513 c0 -91 16 -67 19 30 1 9 8 17 16 17 8 0 15 5 15 10 0 6
-11 10 -25 10 -24 0 -25 -2 -25 -67z"/>
<path d="M900 3565 c0 -9 6 -12 15 -9 8 4 12 10 9 15 -8 14 -24 10 -24 -6z"/>
<path d="M1011 3564 c0 -11 3 -14 6 -6 3 7 2 16 -1 19 -3 4 -6 -2 -5 -13z"/>
<path d="M1066 3565 c4 -8 8 -15 10 -15 2 0 4 7 4 15 0 8 -4 15 -10 15 -5 0
-7 -7 -4 -15z"/>
<path d="M1156 3550 c-3 -16 -9 -44 -12 -62 -5 -25 -3 -30 9 -25 9 3 21 -1 28
-9 10 -12 14 -12 20 -2 7 10 9 10 9 -1 0 -7 6 -11 14 -8 10 4 12 0 9 -14 -3
-10 0 -19 6 -19 6 0 11 3 11 8 0 4 3 17 6 30 5 16 2 22 -10 22 -9 0 -13 6 -10
14 3 8 1 17 -5 21 -7 3 -11 -2 -11 -14 0 -12 -7 -21 -15 -21 -8 0 -15 7 -15
16 0 9 5 12 12 8 7 -4 8 -3 4 4 -10 17 -26 15 -26 -3 0 -8 -5 -15 -10 -15 -7
0 -8 18 -4 50 7 54 -1 69 -10 20z"/>
<path d="M1350 3570 c0 -5 5 -10 10 -10 6 0 10 5 10 10 0 6 -4 10 -10 10 -5 0
-10 -4 -10 -10z"/>
<path d="M1381 3564 c0 -11 3 -14 6 -6 3 7 2 16 -1 19 -3 4 -6 -2 -5 -13z"/>
<path d="M288 3545 c-7 -32 8 -43 16 -12 8 30 7 37 -3 37 -5 0 -11 -11 -13
-25z"/>
<path d="M320 3554 c0 -8 5 -12 10 -9 6 3 10 10 10 16 0 5 -4 9 -10 9 -5 0
-10 -7 -10 -16z"/>
<path d="M360 3560 c0 -5 5 -10 10 -10 6 0 10 5 10 10 0 6 -4 10 -10 10 -5 0
-10 -4 -10 -10z"/>
<path d="M650 3536 c0 -9 5 -16 10 -16 6 0 10 4 10 9 0 6 -4 13 -10 16 -5 3
-10 -1 -10 -9z"/>
<path d="M710 3510 c0 -31 -4 -40 -17 -41 -32 -1 -55 -7 -66 -18 -6 -6 6 -8
36 -6 34 2 44 -1 41 -10 -3 -7 -1 -16 5 -20 7 -4 11 5 12 22 0 15 2 47 5 71 3
26 1 42 -5 42 -6 0 -11 -18 -11 -40z"/>
<path d="M1193 3543 c-20 -7 -15 -19 7 -20 11 -1 20 4 20 13 0 14 -6 16 -27 7z"/>
<path d="M1350 3535 c0 -8 5 -15 10 -15 6 0 10 7 10 15 0 8 -4 15 -10 15 -5 0
-10 -7 -10 -15z"/>
<path d="M1410 3534 c0 -8 5 -12 10 -9 6 4 8 11 5 16 -9 14 -15 11 -15 -7z"/>
<path d="M340 3529 c0 -6 7 -9 15 -5 8 3 15 1 15 -4 0 -6 4 -10 10 -10 5 0 7
7 4 15 -7 17 -44 21 -44 4z"/>
<path d="M401 3524 c0 -11 3 -14 6 -6 3 7 2 16 -1 19 -3 4 -6 -2 -5 -13z"/>
<path d="M430 3526 c0 -9 5 -16 10 -16 6 0 10 4 10 9 0 6 -4 13 -10 16 -5 3
-10 -1 -10 -9z"/>
<path d="M460 3524 c0 -8 5 -12 10 -9 6 3 10 10 10 16 0 5 -4 9 -10 9 -5 0
-10 -7 -10 -16z"/>
<path d="M580 3531 c0 -6 5 -13 10 -16 6 -3 10 1 10 9 0 9 -4 16 -10 16 -5 0
-10 -4 -10 -9z"/>
<path d="M610 3522 c0 -12 3 -12 15 -2 8 7 15 13 15 15 0 1 -7 2 -15 2 -8 0
-15 -7 -15 -15z"/>
<path d="M680 3530 c0 -5 5 -10 11 -10 5 0 7 5 4 10 -3 6 -8 10 -11 10 -2 0
-4 -4 -4 -10z"/>
<path d="M739 3508 c0 -18 -2 -46 -3 -61 -1 -16 2 -31 6 -33 4 -3 8 17 8 45 0
27 3 56 6 65 3 9 1 16 -5 16 -6 0 -11 -15 -12 -32z"/>
<path d="M800 3530 c0 -5 5 -10 10 -10 6 0 10 5 10 10 0 6 -4 10 -10 10 -5 0
-10 -4 -10 -10z"/>
<path d="M860 3530 c0 -5 5 -10 10 -10 6 0 10 5 10 10 0 6 -4 10 -10 10 -5 0
-10 -4 -10 -10z"/>
<path d="M890 3530 c0 -5 5 -10 10 -10 6 0 10 5 10 10 0 6 -4 10 -10 10 -5 0
-10 -4 -10 -10z"/>
<path d="M1001 3518 c-1 -14 -4 -33 -7 -42 -3 -9 -2 -16 4 -16 14 0 20 31 11
60 l-7 25 -1 -27z"/>
<path d="M1230 3530 c0 -5 5 -10 10 -10 6 0 10 5 10 10 0 6 -4 10 -10 10 -5 0
-10 -4 -10 -10z"/>
<path d="M1380 3529 c0 -5 5 -7 10 -4 6 3 10 8 10 11 0 2 -4 4 -10 4 -5 0 -10
-5 -10 -11z"/>
<path d="M965 3511 c-3 -5 -1 -12 5 -16 5 -3 10 1 10 9 0 18 -6 21 -15 7z"/>
<path d="M800 3481 c0 -17 4 -31 9 -31 5 0 9 11 9 25 0 14 -4 28 -9 31 -5 3
-9 -9 -9 -25z"/>
<path d="M860 3494 c0 -8 5 -12 10 -9 6 4 8 11 5 16 -9 14 -15 11 -15 -7z"/>
<path d="M1085 3500 c3 -5 8 -10 11 -10 2 0 4 5 4 10 0 6 -5 10 -11 10 -5 0
-7 -4 -4 -10z"/>
<path d="M1250 3495 c0 -8 5 -15 10 -15 6 0 10 7 10 15 0 8 -4 15 -10 15 -5 0
-10 -7 -10 -15z"/>
<path d="M1280 3495 c0 -8 5 -15 10 -15 6 0 10 7 10 15 0 8 -4 15 -10 15 -5 0
-10 -7 -10 -15z"/>
<path d="M1310 3495 c0 -8 5 -15 10 -15 6 0 10 7 10 15 0 8 -4 15 -10 15 -5 0
-10 -7 -10 -15z"/>
<path d="M1340 3501 c0 -6 5 -13 10 -16 6 -3 10 1 10 9 0 9 -4 16 -10 16 -5 0
-10 -4 -10 -9z"/>
<path d="M1370 3501 c0 -6 5 -13 10 -16 6 -3 10 1 10 9 0 9 -4 16 -10 16 -5 0
-10 -4 -10 -9z"/>
<path d="M1400 3500 c0 -5 5 -10 11 -10 5 0 7 5 4 10 -3 6 -8 10 -11 10 -2 0
-4 -4 -4 -10z"/>
<path d="M279 3488 c-1 -19 -6 -41 -14 -60 -4 -10 -3 -18 3 -18 6 0 13 6 15
13 4 10 6 10 6 0 1 -18 21 -16 21 2 0 8 -5 15 -11 15 -7 0 -9 11 -5 30 3 17 1
30 -4 30 -6 0 -10 -6 -11 -12z"/>
<path d="M310 3490 c0 -5 5 -10 10 -10 6 0 10 5 10 10 0 6 -4 10 -10 10 -5 0
-10 -4 -10 -10z"/>
<path d="M352 3489 c2 -6 8 -10 13 -10 5 0 11 4 13 10 2 6 -4 11 -13 11 -9 0
-15 -5 -13 -11z"/>
<path d="M390 3490 c0 -5 5 -10 10 -10 6 0 10 5 10 10 0 6 -4 10 -10 10 -5 0
-10 -4 -10 -10z"/>
<path d="M420 3490 c0 -5 5 -10 11 -10 5 0 7 5 4 10 -3 6 -8 10 -11 10 -2 0
-4 -4 -4 -10z"/>
<path d="M450 3484 c0 -8 5 -12 10 -9 6 4 8 11 5 16 -9 14 -15 11 -15 -7z"/>
<path d="M480 3485 c0 -8 -9 -19 -20 -25 -11 -6 -20 -17 -20 -25 0 -8 -4 -15
-8 -15 -5 0 -8 10 -8 22 1 15 -5 23 -16 23 -10 0 -18 -4 -17 -10 1 -5 5 -9 10
-8 5 2 8 -7 6 -18 -3 -33 40 -34 48 -1 4 16 11 22 22 18 11 -4 14 -2 9 9 -3
10 3 17 19 21 32 8 32 24 0 24 -15 0 -25 -6 -25 -15z"/>
<path d="M540 3484 c0 -8 5 -12 10 -9 6 4 8 11 5 16 -9 14 -15 11 -15 -7z"/>
<path d="M564 3454 c-4 -26 -2 -54 4 -67 l11 -22 0 22 c1 15 6 21 14 17 10 -3
14 4 15 26 0 20 -4 30 -14 30 -11 0 -13 6 -9 20 3 11 2 20 -4 20 -5 0 -13 -21
-17 -46z m31 -13 c3 -5 1 -12 -5 -16 -5 -3 -10 1 -10 9 0 18 6 21 15 7z"/>
<path d="M600 3491 c0 -6 5 -13 10 -16 6 -3 10 1 10 9 0 9 -4 16 -10 16 -5 0
-10 -4 -10 -9z"/>
<path d="M769 3488 c0 -7 -2 -25 -4 -40 -2 -15 1 -30 6 -33 5 -4 10 0 10 7 5
47 4 70 -3 74 -4 3 -8 -1 -9 -8z"/>
<path d="M903 3473 c-7 -3 -13 -14 -13 -24 0 -11 -4 -18 -10 -14 -5 3 -7 12
-3 20 3 8 0 15 -6 15 -6 0 -11 -11 -11 -25 0 -25 -15 -35 -22 -14 -2 5 -11 7
-21 4 -31 -13 -18 -22 29 -20 28 1 51 -4 60 -12 11 -12 14 -12 14 -1 0 10 3 9
10 -2 5 -8 12 -11 17 -7 4 5 2 11 -4 15 -6 4 -13 16 -16 27 -4 17 -5 16 -7 -5
-1 -23 -2 -23 -9 -5 -5 11 -4 25 2 33 12 15 7 21 -10 15z"/>
<path d="M960 3470 c0 -5 5 -10 10 -10 6 0 10 5 10 10 0 6 -4 10 -10 10 -5 0
-10 -4 -10 -10z"/>
<path d="M1043 3455 c-6 -14 -7 -27 -2 -31 5 -3 9 2 9 10 0 9 5 16 10 16 6 0
10 7 10 15 0 23 -14 18 -27 -10z"/>
<path d="M1080 3465 c0 -8 5 -15 10 -15 6 0 10 7 10 15 0 8 -4 15 -10 15 -5 0
-10 -7 -10 -15z"/>
<path d="M1270 3460 c0 -5 5 -10 11 -10 5 0 7 5 4 10 -3 6 -8 10 -11 10 -2 0
-4 -4 -4 -10z"/>
<path d="M1300 3460 c0 -5 5 -10 10 -10 6 0 10 5 10 10 0 6 -4 10 -10 10 -5 0
-10 -4 -10 -10z"/>
<path d="M1330 3455 c0 -8 -9 -15 -20 -15 -12 0 -20 -7 -20 -16 0 -14 3 -14
15 -4 10 9 15 9 15 1 0 -21 18 -11 24 14 4 17 11 23 24 19 14 -5 15 -4 2 5
-21 15 -40 13 -40 -4z"/>
<path d="M1386 3448 c-8 -32 -7 -38 5 -38 6 0 9 7 5 15 -3 8 -1 15 4 15 6 0
10 7 10 15 0 23 -17 18 -24 -7z"/>
<path d="M350 3451 c0 -6 5 -13 10 -16 6 -3 10 1 10 9 0 9 -4 16 -10 16 -5 0
-10 -4 -10 -9z"/>
<path d="M500 3450 c0 -5 5 -10 10 -10 6 0 10 5 10 10 0 6 -4 10 -10 10 -5 0
-10 -4 -10 -10z"/>
<path d="M533 3446 c4 -9 -2 -17 -14 -21 -12 -4 -18 -12 -15 -21 3 -8 1 -14
-4 -14 -6 0 -10 9 -10 20 0 11 -5 20 -11 20 -6 0 -9 -9 -6 -20 3 -13 0 -20 -9
-20 -8 0 -14 -7 -14 -15 0 -8 -4 -15 -10 -15 -5 0 -7 7 -4 15 10 25 -10 16
-23 -10 -6 -14 -7 -27 -2 -31 5 -3 9 3 9 13 1 17 2 17 15 -1 9 -12 15 -15 15
-7 0 11 3 11 15 1 10 -9 15 -9 15 -1 0 6 -5 11 -11 11 -20 0 -3 23 19 27 25 3
28 -6 10 -26 -10 -11 -10 -14 0 -18 6 -3 12 -14 12 -26 0 -16 3 -18 12 -9 8 8
8 15 -1 25 -8 10 -8 26 -2 53 8 34 10 36 16 17 4 -13 12 -23 17 -23 6 0 7 7 2
18 -4 9 -7 29 -6 45 1 15 -4 27 -9 27 -6 0 -9 -7 -6 -14z"/>
<path d="M943 3436 c3 -6 9 -10 14 -9 10 2 10 -58 -1 -107 -5 -20 -5 -31 0
-27 5 5 9 12 10 15 0 4 4 25 8 47 4 22 10 52 12 66 4 23 2 27 -21 27 -15 0
-24 -5 -22 -12z"/>
<path d="M1006 3430 c-4 -14 -9 -38 -11 -55 -1 -16 -6 -40 -10 -52 -5 -15 -3
-23 4 -23 7 0 9 5 6 10 -3 6 -2 10 4 10 5 0 11 -6 14 -12 2 -7 2 11 -1 41 -4
47 -3 53 12 48 10 -4 16 -1 16 8 0 8 -4 15 -9 15 -5 0 -11 8 -13 18 -3 13 -6
12 -12 -8z"/>
<path d="M1150 3440 c0 -5 9 -14 21 -20 19 -11 20 -10 9 9 -11 22 -30 29 -30
11z"/>
<path d="M1065 3430 c3 -5 8 -10 11 -10 2 0 4 5 4 10 0 6 -5 10 -11 10 -5 0
-7 -4 -4 -10z"/>
<path d="M1260 3426 c0 -9 5 -16 10 -16 6 0 10 4 10 9 0 6 -4 13 -10 16 -5 3
-10 -1 -10 -9z"/>
<path d="M325 3420 c-3 -5 -1 -10 4 -10 6 0 11 5 11 10 0 6 -2 10 -4 10 -3 0
-8 -4 -11 -10z"/>
<path d="M620 3419 c0 -5 5 -7 10 -4 6 3 10 8 10 11 0 2 -4 4 -10 4 -5 0 -10
-5 -10 -11z"/>
<path d="M678 3418 c5 -8 6 -22 1 -33 -7 -18 -8 -18 -8 -2 -1 10 -5 16 -10 13
-13 -8 -7 -64 8 -79 10 -10 11 -6 6 18 l-6 30 16 -27 c21 -38 27 -35 20 10
-11 69 -15 82 -26 82 -8 0 -8 -4 -1 -12z"/>
<path d="M1350 3420 c0 -5 5 -10 10 -10 6 0 10 5 10 10 0 6 -4 10 -10 10 -5 0
-10 -4 -10 -10z"/>
<path d="M350 3410 c0 -21 16 -44 23 -33 4 6 0 19 -8 29 -11 15 -14 16 -15 4z"/>
<path d="M733 3399 c-32 -12 -30 -46 2 -46 17 0 25 5 25 17 0 14 7 17 35 14
21 -1 33 2 29 7 -3 6 -16 9 -27 7 -12 -1 -26 0 -32 4 -5 3 -20 2 -32 -3z m17
-19 c0 -5 -4 -10 -10 -10 -5 0 -10 5 -10 10 0 6 5 10 10 10 6 0 10 -4 10 -10z"/>
<path d="M875 3400 c-3 -5 -4 -14 -1 -19 4 -5 0 -12 -6 -15 -10 -5 -10 -7 0
-12 7 -3 18 -11 25 -18 7 -7 19 -11 27 -9 12 4 13 3 1 -5 -8 -6 -10 -15 -5
-23 5 -9 11 -3 20 22 7 18 13 40 13 47 1 19 -17 14 -22 -5 -4 -17 -5 -17 -6 0
0 9 -5 17 -11 17 -5 0 -10 -8 -11 -17 0 -15 -2 -15 -8 2 -5 11 -6 26 -4 33 6
14 -3 16 -12 2z"/>
<path d="M1050 3400 c0 -5 5 -10 10 -10 6 0 10 5 10 10 0 6 -4 10 -10 10 -5 0
-10 -4 -10 -10z"/>
<path d="M1080 3400 c0 -5 5 -10 10 -10 6 0 10 5 10 10 0 6 -4 10 -10 10 -5 0
-10 -4 -10 -10z"/>
<path d="M1153 3398 c3 -9 -1 -24 -8 -35 -13 -17 -14 -17 -15 0 0 19 -20 24
-21 5 -1 -17 -8 -57 -14 -85 -3 -13 -1 -23 5 -23 5 0 10 13 10 29 0 38 16 48
73 46 33 -1 47 2 47 12 0 9 -10 12 -35 8 -25 -3 -35 0 -35 9 0 18 27 28 34 13
5 -9 7 -9 12 0 4 8 13 9 30 3 18 -7 24 -6 24 3 0 9 -17 14 -47 16 -26 1 -51 5
-57 8 -5 4 -7 0 -3 -9z"/>
<path d="M627 3378 c-7 -27 2 -68 14 -68 12 0 11 27 -1 35 -6 3 -7 17 -4 31 3
13 4 24 1 24 -2 0 -7 -10 -10 -22z"/>
<path d="M840 3389 c0 -5 5 -7 10 -4 6 3 10 8 10 11 0 2 -4 4 -10 4 -5 0 -10
-5 -10 -11z"/>
<path d="M1280 3384 c0 -8 5 -12 10 -9 6 3 10 10 10 16 0 5 -4 9 -10 9 -5 0
-10 -7 -10 -16z"/>
<path d="M1310 3385 c0 -18 1 -18 34 -5 18 6 26 6 26 -1 0 -6 5 -7 10 -4 19
12 -1 25 -36 25 -24 0 -34 -5 -34 -15z"/>
<path d="M300 3380 c0 -5 7 -10 15 -10 8 0 18 0 22 -1 4 0 9 4 11 10 2 6 -8
11 -22 11 -14 0 -26 -4 -26 -10z"/>
<path d="M1020 3353 c0 -22 2 -25 10 -13 13 20 13 40 0 40 -5 0 -10 -12 -10
-27z"/>
<path d="M1053 3366 c3 -7 -1 -25 -8 -40 -8 -14 -13 -26 -12 -27 18 -8 47 -3
47 9 0 8 -6 12 -15 9 -11 -5 -12 -1 -5 19 13 33 13 44 -1 44 -6 0 -9 -6 -6
-14z"/>
<path d="M1080 3355 c1 -26 2 -28 11 -12 8 14 8 22 0 30 -8 8 -11 3 -11 -18z"/>
<path d="M590 3360 c0 -5 5 -10 10 -10 6 0 10 5 10 10 0 6 -4 10 -10 10 -5 0
-10 -4 -10 -10z"/>
<path d="M774 3350 c3 -14 6 -28 6 -32 0 -5 5 -8 10 -8 15 0 12 24 -6 46 -15
18 -15 18 -10 -6z"/>
<path d="M800 3360 c0 -5 5 -10 11 -10 5 0 7 5 4 10 -3 6 -8 10 -11 10 -2 0
-4 -4 -4 -10z"/>
<path d="M830 3360 c0 -5 5 -10 10 -10 6 0 10 5 10 10 0 6 -4 10 -10 10 -5 0
-10 -4 -10 -10z"/>
<path d="M254 3335 c-16 -33 -4 -41 13 -9 15 30 16 34 6 34 -5 0 -13 -11 -19
-25z"/>
<path d="M340 3351 c0 -6 5 -13 10 -16 6 -3 10 1 10 9 0 9 -4 16 -10 16 -5 0
-10 -4 -10 -9z"/>
<path d="M370 3356 c0 -16 29 -66 33 -59 7 11 -14 63 -25 63 -5 0 -8 -2 -8 -4z"/>
<path d="M531 3344 c0 -11 3 -14 6 -6 3 7 2 16 -1 19 -3 4 -6 -2 -5 -13z"/>
<path d="M1281 3344 c0 -11 3 -14 6 -6 3 7 2 16 -1 19 -3 4 -6 -2 -5 -13z"/>
<path d="M1310 3345 c0 -8 5 -15 10 -15 6 0 10 7 10 15 0 8 -4 15 -10 15 -5 0
-10 -7 -10 -15z"/>
<path d="M290 3342 c0 -4 9 -8 20 -8 11 0 20 4 20 8 0 4 -9 8 -20 8 -11 0 -20
-4 -20 -8z"/>
<path d="M561 3344 c-1 -6 6 -17 14 -24 12 -10 15 -9 15 4 0 10 -4 15 -9 12
-5 -4 -12 0 -14 6 -4 8 -6 9 -6 2z"/>
<path d="M600 3325 c0 -8 5 -15 10 -15 6 0 10 7 10 15 0 8 -4 15 -10 15 -5 0
-10 -7 -10 -15z"/>
<path d="M720 3325 c0 -8 5 -15 10 -15 6 0 10 7 10 15 0 8 -4 15 -10 15 -5 0
-10 -7 -10 -15z"/>
<path d="M750 3330 c0 -5 5 -10 11 -10 5 0 7 5 4 10 -3 6 -8 10 -11 10 -2 0
-4 -4 -4 -10z"/>
<path d="M810 3324 c0 -8 5 -12 10 -9 6 3 10 10 10 16 0 5 -4 9 -10 9 -5 0
-10 -7 -10 -16z"/>
<path d="M840 3335 c1 -31 60 -58 60 -29 0 8 -8 14 -18 14 -10 0 -23 5 -30 12
-7 7 -12 8 -12 3z"/>
<path d="M270 3309 c0 -6 7 -9 15 -5 8 3 15 1 15 -5 0 -6 5 -7 10 -4 6 4 8 11
5 16 -9 13 -45 11 -45 -2z"/>
<path d="M330 3304 c0 -8 5 -12 10 -9 6 3 10 10 10 16 0 5 -4 9 -10 9 -5 0
-10 -7 -10 -16z"/>
<path d="M363 3275 c0 -25 4 -45 9 -45 4 0 7 3 6 8 0 4 3 16 7 26 6 13 4 21
-3 24 -7 2 -10 8 -7 12 3 5 2 11 -3 14 -5 3 -9 -15 -9 -39z"/>
<path d="M420 3304 c0 -8 5 -12 10 -9 6 3 10 10 10 16 0 5 -4 9 -10 9 -5 0
-10 -7 -10 -16z"/>
<path d="M453 3269 c-1 -55 3 -61 17 -24 6 17 5 32 -3 49 -12 23 -13 21 -14
-25z"/>
<path d="M480 3300 c6 -11 8 -31 4 -45 -3 -14 -2 -25 4 -25 14 0 26 54 13 58
-5 2 -7 10 -4 18 3 9 -1 14 -11 14 -14 0 -15 -4 -6 -20z"/>
<path d="M540 3304 c0 -8 5 -12 10 -9 6 3 10 10 10 16 0 5 -4 9 -10 9 -5 0
-10 -7 -10 -16z"/>
<path d="M1181 3304 c0 -11 3 -14 6 -6 3 7 2 16 -1 19 -3 4 -6 -2 -5 -13z"/>
<path d="M1240 3310 c0 -5 5 -10 11 -10 5 0 7 5 4 10 -3 6 -8 10 -11 10 -2 0
-4 -4 -4 -10z"/>
<path d="M1269 3278 c-1 -24 -3 -34 -6 -23 -9 36 -23 41 -23 8 0 -17 7 -36 15
-43 12 -10 15 -10 15 0 0 10 4 9 16 -1 14 -11 15 -9 8 27 -4 21 -7 47 -6 57 0
9 -3 17 -9 17 -5 0 -10 -19 -10 -42z"/>
<path d="M1330 3304 c0 -8 5 -12 10 -9 6 3 10 10 10 16 0 5 -4 9 -10 9 -5 0
-10 -7 -10 -16z"/>
<path d="M567 3293 c-4 -3 -7 -11 -7 -17 0 -6 5 -5 12 2 6 6 9 14 7 17 -3 3
-9 2 -12 -2z"/>
<path d="M591 3284 c0 -11 3 -14 6 -6 3 7 2 16 -1 19 -3 4 -6 -2 -5 -13z"/>
<path d="M621 3284 c0 -11 3 -14 6 -6 3 7 2 16 -1 19 -3 4 -6 -2 -5 -13z"/>
<path d="M651 3284 c0 -11 3 -14 6 -6 3 7 2 16 -1 19 -3 4 -6 -2 -5 -13z"/>
<path d="M676 3283 c-3 -10 -9 -24 -12 -30 -3 -7 -1 -13 4 -13 5 0 12 8 16 18
3 9 9 23 12 30 3 6 1 12 -4 12 -5 0 -12 -8 -16 -17z"/>
<path d="M710 3284 c0 -8 5 -12 10 -9 6 3 10 10 10 16 0 5 -4 9 -10 9 -5 0
-10 -7 -10 -16z"/>
<path d="M740 3284 c0 -8 5 -12 10 -9 6 4 8 11 5 16 -9 14 -15 11 -15 -7z"/>
<path d="M770 3284 c0 -8 5 -12 10 -9 6 4 8 11 5 16 -9 14 -15 11 -15 -7z"/>
<path d="M796 3283 c-3 -10 -9 -24 -12 -30 -3 -7 -1 -13 4 -13 5 0 12 8 16 18
3 9 9 23 12 30 3 6 1 12 -4 12 -5 0 -12 -8 -16 -17z"/>
<path d="M826 3283 c-3 -10 -9 -24 -12 -30 -3 -7 -1 -13 4 -13 5 0 12 8 16 18
3 9 9 23 12 30 3 6 1 12 -4 12 -5 0 -12 -8 -16 -17z"/>
<path d="M1210 3261 c0 -17 -5 -31 -10 -31 -6 0 -8 11 -4 25 4 15 2 25 -5 25
-6 0 -11 -17 -11 -40 0 -31 3 -38 15 -34 8 4 15 10 15 15 0 5 5 9 11 9 5 0 7
-4 4 -10 -3 -5 -1 -10 4 -10 14 0 14 17 0 26 -6 3 -9 15 -6 25 3 10 1 22 -4
25 -5 3 -9 -9 -9 -25z"/>
<path d="M255 3270 c4 -6 11 -8 16 -5 12 8 12 3 -6 -38 -17 -42 -19 -57 -6
-57 5 0 12 18 16 40 4 22 11 42 16 46 18 11 9 24 -17 24 -14 0 -23 -4 -19 -10z"/>
<path d="M301 3239 c-7 -23 -15 -47 -18 -55 -3 -8 -1 -14 4 -14 5 0 14 19 21
43 7 23 15 48 18 55 3 6 2 12 -4 12 -5 0 -14 -18 -21 -41z"/>
<path d="M340 3269 c0 -5 5 -7 10 -4 6 3 10 8 10 11 0 2 -4 4 -10 4 -5 0 -10
-5 -10 -11z"/>
<path d="M397 3258 c-6 -21 -2 -36 7 -27 10 11 16 49 8 49 -5 0 -12 -10 -15
-22z"/>
<path d="M430 3270 c0 -5 5 -10 10 -10 6 0 10 5 10 10 0 6 -4 10 -10 10 -5 0
-10 -4 -10 -10z"/>
<path d="M517 3258 c-6 -21 -2 -36 7 -27 10 11 16 49 8 49 -5 0 -12 -10 -15
-22z"/>
<path d="M860 3269 c0 -5 4 -8 9 -4 11 6 26 -33 17 -42 -3 -4 -6 2 -6 12 0 15
-2 16 -17 4 -11 -10 -14 -10 -9 -1 4 6 2 12 -3 12 -13 0 -14 -20 -3 -35 12
-16 50 -16 56 1 10 27 -5 64 -25 64 -10 0 -19 -5 -19 -11z"/>
<path d="M915 3241 c0 -27 3 -37 12 -34 7 3 13 0 13 -6 0 -6 -4 -11 -10 -11
-5 0 -10 -13 -10 -30 0 -16 5 -30 11 -30 6 0 9 9 6 19 -2 10 -1 25 4 32 7 11
9 9 9 -5 0 -17 2 -18 13 -7 10 11 10 14 0 18 -7 3 -13 12 -13 20 0 12 3 13 14
4 11 -9 15 -9 19 1 4 10 8 10 16 -2 14 -20 14 -4 -1 37 -7 18 -16 33 -20 33
-11 0 -10 -7 2 -31 7 -13 7 -19 1 -19 -6 0 -13 11 -17 25 -3 14 -10 25 -15 25
-12 0 -11 -7 1 -31 7 -13 7 -19 1 -19 -6 0 -13 11 -17 25 -9 37 -19 30 -19
-14z"/>
<path d="M1005 3258 c4 -13 11 -27 16 -32 17 -18 9 -36 -16 -36 -14 0 -25 -5
-25 -11 0 -7 10 -9 25 -5 23 6 37 -8 17 -16 -12 -4 -24 -58 -14 -58 10 0 32
68 32 99 0 12 4 20 9 16 10 -6 9 -44 -2 -62 -4 -6 -3 -14 2 -18 6 -3 13 11 17
32 9 49 14 58 26 42 7 -11 8 -9 4 4 -3 11 -9 30 -12 43 -3 13 -10 24 -15 24
-12 0 -11 -7 1 -31 7 -11 7 -19 1 -19 -5 0 -12 6 -14 13 -4 9 -8 9 -16 -2 -8
-12 -11 -10 -16 12 -4 15 -11 27 -17 27 -5 0 -6 -10 -3 -22z"/>
<path d="M1030 3270 c0 -5 5 -10 10 -10 6 0 10 5 10 10 0 6 -4 10 -10 10 -5 0
-10 -4 -10 -10z"/>
<path d="M1125 3271 c3 -5 1 -12 -4 -16 -11 -6 -7 -77 4 -95 3 -5 -1 -10 -9
-10 -9 0 -16 -5 -16 -11 0 -6 6 -9 14 -6 16 6 26 -13 26 -49 0 -13 5 -24 11
-24 7 0 8 11 3 33 -4 17 -7 40 -6 50 0 9 -4 17 -10 17 -7 0 -9 20 -5 60 4 39
3 60 -4 60 -5 0 -8 -4 -4 -9z"/>
<path d="M1156 3263 c-11 -38 -9 -80 4 -118 7 -22 13 -50 12 -62 -1 -13 3 -23
9 -23 14 0 4 77 -12 97 -7 7 -9 35 -5 68 5 55 2 71 -8 38z"/>
<path d="M550 3248 c0 -6 3 -8 7 -5 3 4 12 2 20 -4 10 -9 13 -8 13 5 0 9 -8
16 -20 16 -11 0 -20 -5 -20 -12z"/>
<path d="M600 3251 c0 -6 5 -13 10 -16 6 -3 10 1 10 9 0 9 -4 16 -10 16 -5 0
-10 -4 -10 -9z"/>
<path d="M630 3250 c0 -5 5 -10 10 -10 6 0 10 5 10 10 0 6 -4 10 -10 10 -5 0
-10 -4 -10 -10z"/>
<path d="M690 3251 c0 -6 5 -13 10 -16 6 -3 10 1 10 9 0 9 -4 16 -10 16 -5 0
-10 -4 -10 -9z"/>
<path d="M720 3250 c0 -5 5 -10 10 -10 6 0 10 5 10 10 0 6 -4 10 -10 10 -5 0
-10 -4 -10 -10z"/>
<path d="M750 3250 c0 -5 5 -10 10 -10 6 0 10 5 10 10 0 6 -4 10 -10 10 -5 0
-10 -4 -10 -10z"/>
<path d="M330 3240 c0 -5 5 -10 11 -10 5 0 7 5 4 10 -3 6 -8 10 -11 10 -2 0
-4 -4 -4 -10z"/>
<path d="M729 3221 c-1 -3 -2 -13 -3 -21 0 -8 -9 -14 -18 -12 -11 2 -18 -3
-18 -12 0 -16 29 -11 41 7 3 5 9 -15 13 -43 6 -45 10 -51 26 -47 11 3 20 0 20
-5 0 -6 6 -6 15 2 8 6 19 9 25 5 5 -3 10 1 10 9 0 10 -13 16 -42 18 -39 3 -43
5 -43 30 0 14 -3 30 -7 34 -11 10 -10 24 2 24 5 0 13 -12 16 -26 5 -17 10 -22
17 -15 7 7 7 14 -1 24 -7 8 -9 16 -6 19 2 3 -7 8 -21 10 -14 3 -26 2 -26 -1z"/>
<path d="M320 3211 c0 -5 -3 -16 -6 -25 -3 -9 -2 -16 3 -16 5 0 10 11 11 25 1
14 0 25 -3 25 -3 0 -5 -4 -5 -9z"/>
<path d="M341 3162 c1 -34 5 -62 9 -62 10 0 7 106 -3 116 -4 5 -7 -20 -6 -54z"/>
<path d="M370 3195 c0 -14 5 -25 10 -25 6 0 10 11 10 25 0 14 -4 25 -10 25 -5
0 -10 -11 -10 -25z"/>
<path d="M400 3196 c0 -16 6 -26 15 -26 10 0 15 -10 15 -34 0 -19 5 -38 10
-41 6 -3 10 -1 10 5 0 7 6 8 19 0 25 -13 31 -13 31 1 0 5 -4 7 -10 4 -14 -9
-13 48 2 63 7 7 8 12 4 12 -5 0 -3 6 3 14 8 9 8 16 2 20 -5 3 -12 -7 -16 -24
-7 -33 -21 -39 -28 -12 -4 16 -5 16 -6 -1 -1 -16 -3 -17 -16 -3 -8 8 -15 19
-15 25 0 5 -4 13 -10 16 -6 4 -10 -5 -10 -19z m60 -62 c0 -8 -5 -12 -10 -9 -6
4 -8 11 -5 16 9 14 15 11 15 -7z"/>
<path d="M430 3205 c0 -8 5 -15 10 -15 6 0 10 7 10 15 0 8 -4 15 -10 15 -5 0
-10 -7 -10 -15z"/>
<path d="M460 3205 c0 -8 5 -15 10 -15 6 0 10 7 10 15 0 8 -4 15 -10 15 -5 0
-10 -7 -10 -15z"/>
<path d="M516 3194 c-4 -15 -5 -29 -1 -32 3 -3 5 2 5 11 0 10 5 17 10 17 6 0
10 7 10 15 0 25 -17 17 -24 -11z"/>
<path d="M546 3198 c-8 -32 -7 -38 4 -38 5 0 7 7 4 15 -4 8 -1 15 5 15 6 0 11
7 11 15 0 23 -17 18 -24 -7z"/>
<path d="M580 3210 c0 -5 5 -10 10 -10 6 0 10 5 10 10 0 6 -4 10 -10 10 -5 0
-10 -4 -10 -10z"/>
<path d="M610 3209 c0 -5 5 -7 10 -4 6 3 10 8 10 11 0 2 -4 4 -10 4 -5 0 -10
-5 -10 -11z"/>
<path d="M637 3196 c-5 -15 -6 -31 -3 -34 8 -8 18 25 14 45 -3 13 -6 10 -11
-11z"/>
<path d="M666 3198 c-8 -31 -8 -43 1 -34 8 8 16 56 10 56 -3 0 -7 -10 -11 -22z"/>
<path d="M823 3190 c11 -30 27 -41 27 -17 -1 13 -24 47 -33 47 -3 0 0 -13 6
-30z"/>
<path d="M1204 3189 c-3 -6 -1 -16 5 -22 8 -8 11 -5 11 11 0 24 -5 28 -16 11z"/>
<path d="M1240 3195 c-1 -5 -2 -14 -1 -19 1 -5 -3 -12 -10 -16 -7 -5 -8 -13
-4 -21 6 -10 10 -8 15 6 6 18 7 17 12 -3 4 -15 2 -22 -8 -22 -16 0 -15 -43 0
-57 5 -4 6 2 3 15 -3 15 -1 22 6 19 7 -2 11 -11 9 -21 -2 -9 2 -16 8 -16 13 0
6 50 -13 100 -3 8 -8 22 -10 30 -3 8 -6 11 -7 5z"/>
<path d="M1278 3193 c-15 -4 -15 -7 -2 -38 8 -19 14 -46 14 -60 0 -15 4 -24 8
-21 5 3 7 19 4 36 -4 26 -2 29 13 24 13 -5 16 -3 13 7 -3 8 -12 13 -21 11 -21
-3 -33 18 -16 29 17 10 10 17 -13 12z"/>
<path d="M1310 3191 c0 -6 5 -13 10 -16 6 -3 10 1 10 9 0 9 -4 16 -10 16 -5 0
-10 -4 -10 -9z"/>
<path d="M1340 3191 c0 -6 5 -13 10 -16 6 -3 10 1 10 9 0 9 -4 16 -10 16 -5 0
-10 -4 -10 -9z"/>
<path d="M570 3176 c0 -9 5 -16 10 -16 6 0 10 4 10 9 0 6 -4 13 -10 16 -5 3
-10 -1 -10 -9z"/>
<path d="M600 3174 c0 -8 5 -12 10 -9 6 4 8 11 5 16 -9 14 -15 11 -15 -7z"/>
<path d="M800 3174 c0 -8 5 -12 10 -9 6 4 8 11 5 16 -9 14 -15 11 -15 -7z"/>
<path d="M860 3175 c0 -8 5 -15 10 -15 6 0 10 7 10 15 0 8 -4 15 -10 15 -5 0
-10 -7 -10 -15z"/>
<path d="M888 3150 c-3 -25 -2 -49 0 -55 10 -17 20 44 13 73 -7 25 -8 23 -13
-18z"/>
<path d="M1085 3180 c3 -5 8 -10 11 -10 2 0 4 5 4 10 0 6 -5 10 -11 10 -5 0
-7 -4 -4 -10z"/>
<path d="M1174 3178 c3 -7 9 -21 12 -30 4 -10 11 -18 16 -18 5 0 7 6 4 13 -3
6 -9 20 -12 30 -4 9 -11 17 -16 17 -5 0 -7 -6 -4 -12z"/>
<path d="M250 3145 c0 -9 6 -12 15 -9 11 5 15 -1 15 -22 0 -20 3 -25 11 -17
16 16 1 59 -22 60 -10 1 -19 -5 -19 -12z"/>
<path d="M402 3130 c1 -16 5 -30 10 -30 11 0 10 47 -1 55 -5 3 -9 -8 -9 -25z"/>
<path d="M683 3152 c-21 -2 -33 -9 -33 -18 0 -17 16 -19 23 -1 4 9 6 8 6 -2 1
-11 4 -11 16 -1 12 10 15 7 21 -14 3 -14 10 -26 15 -26 12 0 11 13 -3 41 -10
19 -20 23 -45 21z"/>
<path d="M980 3136 c-12 -33 -13 -46 -1 -46 9 0 24 60 16 68 -2 3 -9 -7 -15
-22z"/>
<path d="M1076 3151 c-4 -7 -5 -15 -2 -18 9 -9 19 4 14 18 -4 11 -6 11 -12 0z"/>
<path d="M310 3126 c0 -14 5 -28 10 -31 6 -4 10 7 10 24 0 17 -4 31 -10 31 -5
0 -10 -11 -10 -24z"/>
<path d="M370 3140 c0 -5 5 -10 11 -10 5 0 7 5 4 10 -3 6 -8 10 -11 10 -2 0
-4 -4 -4 -10z"/>
<path d="M531 3135 c-1 -27 10 -42 32 -42 20 0 24 41 5 53 -7 5 -9 0 -6 -14 4
-14 2 -19 -8 -15 -7 2 -15 12 -17 21 -4 13 -5 13 -6 -3z"/>
<path d="M594 3130 c3 -14 6 -28 6 -32 0 -5 5 -8 10 -8 15 0 12 22 -7 45 -15
20 -15 19 -9 -5z"/>
<path d="M620 3141 c0 -19 12 -41 23 -41 8 0 8 3 0 11 -6 6 -9 18 -6 25 3 8 0
14 -6 14 -6 0 -11 -4 -11 -9z"/>
<path d="M770 3140 c0 -5 5 -10 10 -10 6 0 10 5 10 10 0 6 -4 10 -10 10 -5 0
-10 -4 -10 -10z"/>
<path d="M830 3140 c0 -5 5 -10 10 -10 6 0 10 5 10 10 0 6 -4 10 -10 10 -5 0
-10 -4 -10 -10z"/>
<path d="M860 3140 c0 -5 5 -10 10 -10 6 0 10 5 10 10 0 6 -4 10 -10 10 -5 0
-10 -4 -10 -10z"/>
<path d="M950 3141 c0 -6 5 -13 10 -16 6 -3 10 1 10 9 0 9 -4 16 -10 16 -5 0
-10 -4 -10 -9z"/>
<path d="M2115 3122 c-17 -11 -68 -31 -113 -47 -66 -22 -92 -37 -128 -73 -24
-25 -44 -51 -44 -59 0 -19 5 -17 42 16 50 43 257 106 272 83 3 -5 31 -9 63
-10 32 -1 95 -7 141 -14 l83 -11 31 30 c17 17 27 36 24 42 -4 6 -28 10 -54 10
-26 -1 -87 6 -137 16 -49 9 -100 17 -112 17 -13 0 -23 4 -23 9 0 13 -12 11
-45 -9z m125 -42 c30 -6 77 -13 105 -16 90 -10 62 -15 -45 -9 -123 8 -191 22
-169 35 7 5 23 7 34 5 11 -2 45 -9 75 -15z"/>
<path d="M375 3111 c-3 -5 -1 -12 5 -16 5 -3 10 1 10 9 0 18 -6 21 -15 7z"/>
<path d="M510 3104 c0 -8 5 -12 10 -9 6 4 8 11 5 16 -9 14 -15 11 -15 -7z"/>
<path d="M690 3104 c0 -8 5 -12 10 -9 6 3 10 10 10 16 0 5 -4 9 -10 9 -5 0
-10 -7 -10 -16z"/>
<path d="M856 3111 c-4 -7 -5 -15 -2 -18 9 -9 19 4 14 18 -4 11 -6 11 -12 0z"/>
<path d="M910 3111 c0 -5 5 -13 10 -16 6 -3 10 -2 10 4 0 5 -4 13 -10 16 -5 3
-10 2 -10 -4z"/>
<path d="M1030 3111 c0 -6 4 -12 9 -15 5 -3 7 -15 4 -25 -4 -16 0 -19 21 -17
35 4 37 7 27 42 -8 24 -9 25 -10 7 -1 -28 -21 -30 -28 -3 -5 20 -23 28 -23 11z"/>
<path d="M1200 3092 c0 -18 5 -32 10 -32 6 0 8 11 4 28 -10 39 -14 40 -14 4z"/>
<path d="M1320 3110 c0 -5 5 -10 10 -10 6 0 10 5 10 10 0 6 -4 10 -10 10 -5 0
-10 -4 -10 -10z"/>
<path d="M940 3100 c0 -5 5 -10 10 -10 6 0 10 5 10 10 0 6 -4 10 -10 10 -5 0
-10 -4 -10 -10z"/>
<path d="M1110 3081 c0 -6 5 -13 10 -16 6 -3 10 1 10 9 0 9 -4 16 -10 16 -5 0
-10 -4 -10 -9z"/>
<path d="M255 3071 c-3 -5 -1 -12 5 -16 5 -3 10 1 10 9 0 18 -6 21 -15 7z"/>
<path d="M282 3068 c2 -6 10 -14 16 -16 7 -2 10 2 6 12 -7 18 -28 22 -22 4z"/>
<path d="M320 3066 c0 -9 5 -16 10 -16 6 0 10 4 10 9 0 6 -4 13 -10 16 -5 3
-10 -1 -10 -9z"/>
<path d="M347 3063 c4 -10 9 -11 18 -3 9 8 14 7 18 -2 4 -9 6 -8 6 3 1 11 -7
17 -23 17 -17 0 -23 -5 -19 -15z"/>
<path d="M410 3066 c0 -9 5 -16 10 -16 6 0 10 4 10 9 0 6 -4 13 -10 16 -5 3
-10 -1 -10 -9z"/>
<path d="M440 3066 c0 -9 9 -14 20 -13 11 1 20 7 20 14 0 7 -9 13 -20 13 -11
0 -20 -6 -20 -14z"/>
<path d="M500 3064 c0 -10 6 -14 15 -10 8 3 15 0 15 -6 0 -9 3 -9 11 -1 6 6
18 9 25 6 8 -3 14 1 14 11 0 18 -15 22 -25 6 -4 -7 -12 -7 -25 0 -25 14 -30
13 -30 -6z"/>
<path d="M620 3064 c0 -8 5 -12 10 -9 6 4 8 11 5 16 -9 14 -15 11 -15 -7z"/>
<path d="M650 3065 c0 -8 9 -13 20 -12 11 1 20 5 20 10 0 4 5 5 10 2 6 -3 10
-17 10 -31 0 -13 4 -24 10 -24 5 0 9 14 7 32 -2 30 -5 32 -40 34 -25 2 -37 -2
-37 -11z"/>
<path d="M740 3064 c0 -8 5 -12 10 -9 6 3 10 10 10 16 0 5 -4 9 -10 9 -5 0
-10 -7 -10 -16z"/>
<path d="M865 3070 c-3 -5 -1 -10 4 -10 6 0 11 5 11 10 0 6 -2 10 -4 10 -3 0
-8 -4 -11 -10z"/>
<path d="M890 3070 c0 -5 5 -10 10 -10 6 0 10 5 10 10 0 6 -4 10 -10 10 -5 0
-10 -4 -10 -10z"/>
<path d="M920 3070 c0 -5 5 -10 10 -10 6 0 10 5 10 10 0 6 -4 10 -10 10 -5 0
-10 -4 -10 -10z"/>
<path d="M952 3071 c4 -13 18 -16 19 -4 0 4 -5 9 -11 12 -7 2 -11 -2 -8 -8z"/>
<path d="M991 3064 c0 -11 3 -14 6 -6 3 7 2 16 -1 19 -3 4 -6 -2 -5 -13z"/>
<path d="M1010 3070 c0 -5 5 -10 10 -10 6 0 10 5 10 10 0 6 -4 10 -10 10 -5 0
-10 -4 -10 -10z"/>
<path d="M770 3060 c0 -5 5 -10 10 -10 6 0 10 5 10 10 0 6 -4 10 -10 10 -5 0
-10 -4 -10 -10z"/>
<path d="M835 3060 c3 -5 8 -10 11 -10 2 0 4 5 4 10 0 6 -5 10 -11 10 -5 0 -7
-4 -4 -10z"/>
<path d="M920 3031 c0 -12 5 -21 10 -21 6 0 10 6 10 14 0 8 -4 18 -10 21 -5 3
-10 -3 -10 -14z"/>
<path d="M1103 3042 c-18 -2 -33 -8 -33 -13 0 -6 4 -8 9 -5 5 4 12 0 14 -6 4
-10 7 -10 14 -1 5 7 21 10 36 8 15 -3 27 -1 27 4 0 12 -27 17 -67 13z"/>
<path d="M1215 3040 c-2 -3 0 -12 4 -19 6 -9 10 -10 15 -2 4 6 12 9 17 6 5 -4
9 0 9 7 0 13 -38 20 -45 8z"/>
<path d="M1305 3041 c-3 -5 -1 -12 5 -16 5 -3 10 1 10 9 0 18 -6 21 -15 7z"/>
<path d="M260 3030 c0 -5 5 -10 10 -10 6 0 10 5 10 10 0 6 -4 10 -10 10 -5 0
-10 -4 -10 -10z"/>
<path d="M296 3032 c-4 -6 -1 -22 5 -34 15 -28 23 -11 11 22 -6 15 -11 19 -16
12z"/>
<path d="M328 3035 c-8 -9 3 -55 14 -55 5 0 8 10 6 21 -4 32 30 34 38 3 3 -13
11 -24 16 -24 6 0 8 10 4 23 -3 12 -6 25 -6 30 0 8 -64 10 -72 2z"/>
<path d="M411 3033 c3 -31 19 -47 50 -49 19 -2 49 -5 67 -8 24 -4 32 -2 32 9
0 11 -11 15 -40 15 -29 0 -43 5 -52 20 -7 11 -17 20 -22 20 -4 0 -3 -7 4 -15
7 -9 10 -18 7 -21 -9 -9 -27 5 -27 22 0 8 -4 14 -10 14 -5 0 -10 -3 -9 -7z"/>
<path d="M560 3024 c0 -8 5 -12 10 -9 6 4 8 11 5 16 -9 14 -15 11 -15 -7z"/>
<path d="M590 3025 c0 -8 5 -15 10 -15 6 0 10 7 10 15 0 8 -4 15 -10 15 -5 0
-10 -7 -10 -15z"/>
<path d="M620 3025 c0 -8 5 -15 10 -15 6 0 10 7 10 15 0 8 -4 15 -10 15 -5 0
-10 -7 -10 -15z"/>
<path d="M650 3025 c0 -7 11 -12 25 -12 14 0 25 5 25 12 0 7 -11 13 -25 13
-14 0 -25 -6 -25 -13z"/>
<path d="M740 3025 c0 -8 5 -15 10 -15 6 0 10 7 10 15 0 8 -4 15 -10 15 -5 0
-10 -7 -10 -15z"/>
<path d="M818 3032 c-26 -5 -22 -22 5 -18 12 1 21 6 20 10 -2 11 -6 13 -25 8z"/>
<path d="M861 3024 c0 -11 3 -14 6 -6 3 7 2 16 -1 19 -3 4 -6 -2 -5 -13z"/>
<path d="M890 3030 c0 -5 5 -10 11 -10 5 0 7 5 4 10 -3 6 -8 10 -11 10 -2 0
-4 -4 -4 -10z"/>
<path d="M963 3033 c-22 -8 -14 -20 12 -20 15 0 25 5 25 13 0 14 -14 17 -37 7z"/>
<path d="M1010 3025 c0 -8 5 -15 10 -15 6 0 10 7 10 15 0 8 -4 15 -10 15 -5 0
-10 -7 -10 -15z"/>
<path d="M1040 3026 c0 -9 5 -16 10 -16 6 0 10 4 10 9 0 6 -4 13 -10 16 -5 3
-10 -1 -10 -9z"/>
<path d="M1270 3031 c0 -6 5 -13 10 -16 6 -3 10 1 10 9 0 9 -4 16 -10 16 -5 0
-10 -4 -10 -9z"/>
<path d="M500 3019 c0 -5 5 -7 10 -4 6 3 10 8 10 11 0 2 -4 4 -10 4 -5 0 -10
-5 -10 -11z"/>
<path d="M270 3001 c0 -6 5 -13 10 -16 6 -3 10 1 10 9 0 9 -4 16 -10 16 -5 0
-10 -4 -10 -9z"/>
<path d="M366 3001 c-4 -7 -5 -15 -2 -18 9 -9 19 4 14 18 -4 11 -6 11 -12 0z"/>
<path d="M724 3001 c-2 -2 -4 -11 -4 -19 0 -12 2 -12 17 -1 13 11 17 11 20 2
3 -7 13 -13 24 -13 24 0 39 -36 39 -92 0 -32 3 -39 16 -34 12 4 14 1 9 -14 -4
-12 -2 -20 5 -20 6 0 9 4 5 9 -3 5 -1 12 4 15 12 8 7 75 -8 106 -11 24 -11 24
-7 2 3 -15 0 -22 -7 -19 -7 2 -13 9 -13 15 -1 7 -3 14 -4 17 -3 6 -7 22 -9 34
-1 9 -79 20 -87 12z m129 -111 c3 -11 1 -23 -4 -26 -5 -3 -9 6 -9 20 0 31 6
34 13 6z"/>
<path d="M1163 3002 c-22 -2 -33 -9 -33 -19 0 -12 3 -13 14 -4 11 9 15 9 19
-1 4 -8 8 -9 14 -3 11 14 43 18 43 6 0 -5 -5 -13 -10 -16 -6 -4 -8 -15 -5 -25
4 -13 -1 -19 -20 -22 -14 -3 -25 -1 -25 3 0 5 -4 9 -8 9 -4 0 -8 -17 -8 -37
-1 -21 1 -30 3 -20 6 22 43 38 77 31 14 -2 26 0 26 6 0 5 -6 9 -12 8 -16 -4
-23 41 -9 55 6 6 11 14 11 18 0 9 -38 15 -77 11z"/>
<path d="M570 2984 c0 -8 5 -12 10 -9 6 3 10 10 10 16 0 5 -4 9 -10 9 -5 0
-10 -7 -10 -16z"/>
<path d="M630 2990 c0 -5 5 -10 10 -10 6 0 10 5 10 10 0 6 -4 10 -10 10 -5 0
-10 -4 -10 -10z"/>
<path d="M690 2990 c0 -5 5 -10 10 -10 6 0 10 5 10 10 0 6 -4 10 -10 10 -5 0
-10 -4 -10 -10z"/>
<path d="M820 2991 c0 -6 5 -13 10 -16 6 -3 10 1 10 9 0 9 -4 16 -10 16 -5 0
-10 -4 -10 -9z"/>
<path d="M861 2984 c0 -11 3 -14 6 -6 3 7 2 16 -1 19 -3 4 -6 -2 -5 -13z"/>
<path d="M890 2985 c0 -8 2 -15 4 -15 2 0 6 7 10 15 3 8 1 15 -4 15 -6 0 -10
-7 -10 -15z"/>
<path d="M921 2984 c0 -11 3 -14 6 -6 3 7 2 16 -1 19 -3 4 -6 -2 -5 -13z"/>
<path d="M1011 2984 c0 -11 3 -14 6 -6 3 7 2 16 -1 19 -3 4 -6 -2 -5 -13z"/>
<path d="M1041 2984 c0 -11 3 -14 6 -6 3 7 2 16 -1 19 -3 4 -6 -2 -5 -13z"/>
<path d="M1070 2987 c0 -17 42 -15 48 1 2 7 -7 12 -22 12 -15 0 -26 -6 -26
-13z"/>
<path d="M1280 2984 c0 -8 5 -12 10 -9 6 4 8 11 5 16 -9 14 -15 11 -15 -7z"/>
<path d="M945 2980 c3 -5 8 -10 11 -10 2 0 4 5 4 10 0 6 -5 10 -11 10 -5 0 -7
-4 -4 -10z"/>
<path d="M970 2981 c0 -6 5 -13 10 -16 6 -4 8 -10 5 -15 -6 -9 13 -25 21 -18
6 6 -19 58 -28 58 -5 0 -8 -4 -8 -9z"/>
<path d="M270 2955 c0 -8 5 -15 10 -15 6 0 10 7 10 15 0 8 -4 15 -10 15 -5 0
-10 -7 -10 -15z"/>
<path d="M300 2956 c0 -9 5 -16 10 -16 6 0 10 4 10 9 0 6 -4 13 -10 16 -5 3
-10 -1 -10 -9z"/>
<path d="M330 2955 c0 -8 5 -15 10 -15 6 0 10 7 10 15 0 8 -4 15 -10 15 -5 0
-10 -7 -10 -15z"/>
<path d="M360 2955 c0 -8 5 -15 10 -15 6 0 10 7 10 15 0 8 -4 15 -10 15 -5 0
-10 -7 -10 -15z"/>
<path d="M390 2955 c0 -8 5 -15 10 -15 6 0 10 4 10 10 0 5 7 7 15 4 8 -4 15
-1 15 5 0 6 -11 11 -25 11 -16 0 -25 -6 -25 -15z"/>
<path d="M585 2958 c-6 -16 -1 -45 8 -54 4 -4 7 9 7 29 0 37 -7 48 -15 25z"/>
<path d="M470 2948 c0 -6 3 -8 7 -5 3 4 12 2 20 -4 10 -9 13 -8 13 5 0 9 -8
16 -20 16 -11 0 -20 -5 -20 -12z"/>
<path d="M520 2950 c0 -5 5 -10 10 -10 6 0 10 5 10 10 0 6 -4 10 -10 10 -5 0
-10 -4 -10 -10z"/>
<path d="M640 2950 c0 -5 5 -10 10 -10 6 0 10 5 10 10 0 6 -4 10 -10 10 -5 0
-10 -4 -10 -10z"/>
<path d="M1020 2948 c0 -7 11 -14 25 -14 16 -1 24 3 22 10 -5 16 -47 20 -47 4z"/>
<path d="M1082 2948 c6 -18 48 -21 48 -3 0 9 -10 15 -26 15 -15 0 -24 -5 -22
-12z"/>
<path d="M1145 2950 c3 -5 8 -10 11 -10 2 0 4 5 4 10 0 6 -5 10 -11 10 -5 0
-7 -4 -4 -10z"/>
<path d="M1170 2945 c0 -8 5 -15 10 -15 6 0 10 7 10 15 0 8 -4 15 -10 15 -5 0
-10 -7 -10 -15z"/>
<path d="M1230 2950 c0 -5 5 -10 10 -10 6 0 10 5 10 10 0 6 -4 10 -10 10 -5 0
-10 -4 -10 -10z"/>
<path d="M1260 2945 c0 -8 5 -15 10 -15 6 0 10 7 10 15 0 8 -4 15 -10 15 -5 0
-10 -7 -10 -15z"/>
<path d="M296 2873 c1 -33 8 -59 14 -61 8 -3 11 8 8 34 -1 20 2 39 8 41 6 2
10 -7 10 -19 -1 -13 4 -22 12 -20 7 1 12 -8 12 -23 0 -14 -5 -25 -11 -25 -6 0
-9 7 -5 15 3 8 1 15 -4 15 -9 0 -11 -6 -14 -42 -1 -7 5 -12 12 -10 9 2 11 -4
7 -18 -4 -11 -2 -20 4 -20 6 0 11 6 12 13 0 6 2 21 4 32 13 91 14 105 3 111
-8 5 -9 2 -5 -9 3 -9 2 -19 -3 -22 -6 -4 -10 2 -10 12 0 10 -7 26 -14 36 -14
18 -14 18 -19 0 -4 -16 -5 -16 -6 0 0 9 -5 17 -9 17 -5 0 -8 -26 -6 -57z"/>
<path d="M380 2916 c0 -9 5 -16 10 -16 6 0 10 4 10 9 0 6 -4 13 -10 16 -5 3
-10 -1 -10 -9z"/>
<path d="M2035 2899 c-117 -37 -166 -60 -159 -71 3 -5 11 -5 18 1 22 18 260
91 269 82 4 -4 -30 -20 -80 -36 -95 -29 -183 -70 -223 -104 -20 -16 -21 -20
-8 -21 9 0 20 5 23 10 12 20 193 100 224 100 3 0 6 -32 6 -71 l0 -71 -40 7
c-22 3 -64 17 -94 30 -61 29 -61 29 -61 14 0 -5 24 -21 53 -34 64 -29 173 -41
210 -24 29 13 34 25 15 31 -14 5 -21 108 -8 108 16 0 21 39 8 59 -17 28 -44
26 -153 -10z m104 -57 c-6 -19 -6 -38 0 -54 5 -14 7 -36 4 -48 -10 -38 -23 -1
-23 68 0 47 3 62 14 62 12 0 13 -6 5 -28z"/>
<path d="M790 2902 c0 -11 5 -24 10 -27 6 -4 9 2 7 14 -4 29 -17 39 -17 13z"/>
<path d="M1060 2909 c0 -5 5 -7 10 -4 6 3 10 8 10 11 0 2 -4 4 -10 4 -5 0 -10
-5 -10 -11z"/>
<path d="M1112 2911 c2 -7 7 -12 11 -12 12 1 9 15 -3 20 -7 2 -11 -2 -8 -8z"/>
<path d="M1262 2903 c2 -12 -3 -18 -14 -17 -10 1 -18 -4 -18 -11 0 -7 11 -12
24 -12 19 0 23 5 24 28 0 16 -4 29 -9 29 -5 0 -9 -8 -7 -17z"/>
<path d="M1030 2890 c0 -5 5 -10 10 -10 6 0 10 5 10 10 0 6 -4 10 -10 10 -5 0
-10 -4 -10 -10z"/>
<path d="M1170 2875 c0 -8 4 -15 10 -15 5 0 7 7 4 15 -4 8 -8 15 -10 15 -2 0
-4 -7 -4 -15z"/>
<path d="M1200 2858 c0 -21 2 -38 4 -38 9 0 12 50 5 62 -6 8 -9 -1 -9 -24z"/>
<path d="M1030 2860 c0 -6 13 -24 29 -40 25 -26 29 -28 33 -13 6 23 -2 49 -11
35 -4 -7 -12 -8 -21 -1 -13 8 -13 10 0 19 12 8 11 10 -7 10 -13 0 -23 -5 -23
-10z"/>
<path d="M790 2850 c0 -5 5 -10 10 -10 6 0 10 5 10 10 0 6 -4 10 -10 10 -5 0
-10 -4 -10 -10z"/>
<path d="M1100 2841 c0 -6 5 -13 10 -16 6 -3 10 1 10 9 0 9 -4 16 -10 16 -5 0
-10 -4 -10 -9z"/>
<path d="M1134 2821 c2 -38 16 -53 16 -18 0 15 0 30 1 34 0 4 -4 9 -9 11 -5 1
-9 -10 -8 -27z"/>
<path d="M520 2827 c-36 -19 -80 -65 -91 -94 -22 -58 -1 -152 44 -201 12 -13
27 -41 32 -63 11 -43 32 -50 27 -9 -9 85 0 180 23 236 26 64 50 88 64 65 5 -8
7 -29 4 -46 -6 -36 9 -45 82 -45 56 0 69 11 61 50 -6 33 -11 38 -77 85 -43 31
-131 42 -169 22z m50 -17 c0 -6 10 -8 23 -5 42 11 147 -52 117 -70 -8 -5 -5
-12 7 -21 16 -14 15 -14 -17 -9 -26 5 -31 4 -20 -4 17 -12 1 -15 -24 -5 -11 4
-14 13 -10 29 12 50 -44 88 -75 51 -27 -32 -61 -142 -61 -194 0 -47 -2 -53
-15 -42 -21 17 -21 143 -1 159 8 7 18 25 21 41 3 16 13 34 21 41 8 6 14 18 14
25 0 8 5 14 10 14 6 0 10 -5 10 -10z m-72 -86 c-7 -15 -14 -21 -16 -15 -2 7 2
18 8 26 18 22 21 18 8 -11z"/>
<path d="M780 2820 c0 -5 5 -10 10 -10 6 0 10 5 10 10 0 6 -4 10 -10 10 -5 0
-10 -4 -10 -10z"/>
<path d="M1226 2811 c-4 -7 -5 -15 -2 -18 9 -9 19 4 14 18 -4 11 -6 11 -12 0z"/>
<path d="M1105 2801 c-3 -5 -1 -12 5 -16 5 -3 10 1 10 9 0 18 -6 21 -15 7z"/>
<path d="M830 2791 c0 -5 5 -13 10 -16 6 -3 10 -2 10 4 0 5 -4 13 -10 16 -5 3
-10 2 -10 -4z"/>
<path d="M1110 2701 c0 -6 5 -13 10 -16 6 -3 10 1 10 9 0 9 -4 16 -10 16 -5 0
-10 -4 -10 -9z"/>
<path d="M1170 2695 c0 -8 5 -15 10 -15 6 0 10 7 10 15 0 8 -4 15 -10 15 -5 0
-10 -7 -10 -15z"/>
<path d="M1200 2701 c0 -6 5 -13 10 -16 6 -3 10 1 10 9 0 9 -4 16 -10 16 -5 0
-10 -4 -10 -9z"/>
<path d="M704 2609 c-35 -28 -43 -30 -87 -24 l-49 6 5 -55 c10 -95 48 -136
128 -136 36 0 61 -8 99 -30 58 -34 80 -38 80 -12 -1 21 -23 52 -39 52 -12 0
-12 2 -13 78 -1 76 -23 61 -24 -17 -1 -56 1 -64 22 -73 12 -6 25 -17 28 -25 4
-10 -5 -8 -32 8 -20 12 -41 26 -46 31 -6 4 -27 8 -48 8 -21 0 -38 4 -38 8 0 5
-17 18 -39 30 -28 16 -40 30 -45 53 -9 48 -9 49 33 49 22 0 43 5 46 10 8 13
52 13 60 1 3 -5 -4 -12 -14 -16 -18 -5 -61 -62 -61 -79 0 -17 21 -3 35 23 8
17 27 36 42 43 24 11 28 20 28 53 0 52 -19 55 -71 14z"/>
<path d="M1015 2630 c-3 -5 -1 -10 4 -10 6 0 11 5 11 10 0 6 -2 10 -4 10 -3 0
-8 -4 -11 -10z"/>
<path d="M1130 2630 c0 -5 5 -10 10 -10 6 0 10 5 10 10 0 6 -4 10 -10 10 -5 0
-10 -4 -10 -10z"/>
<path d="M1000 2600 c0 -5 5 -10 10 -10 6 0 10 5 10 10 0 6 -4 10 -10 10 -5 0
-10 -4 -10 -10z"/>
<path d="M1150 2600 c0 -5 5 -10 11 -10 5 0 7 5 4 10 -3 6 -8 10 -11 10 -2 0
-4 -4 -4 -10z"/>
<path d="M1090 2560 c0 -5 5 -10 10 -10 6 0 10 5 10 10 0 6 -4 10 -10 10 -5 0
-10 -4 -10 -10z"/>
<path d="M1675 2530 c3 -5 8 -10 11 -10 2 0 4 5 4 10 0 6 -5 10 -11 10 -5 0
-7 -4 -4 -10z"/>
<path d="M2266 2284 c-12 -30 -6 -69 17 -109 29 -50 65 -65 102 -41 32 21 25
35 -9 16 -32 -16 -51 -8 -76 32 -16 24 -20 44 -17 76 5 42 -5 57 -17 26z"/>
<path d="M2473 2194 c-30 -13 -49 -31 -41 -39 2 -2 24 3 48 11 25 9 61 14 83
11 45 -6 49 7 6 22 -40 14 -56 13 -96 -5z"/>
<path d="M855 2044 c22 -53 164 -656 189 -804 23 -137 127 -607 146 -662 11
-31 22 -74 26 -97 4 -23 11 -41 17 -41 13 0 3 60 -27 151 -13 41 -34 119 -45
174 -26 122 -101 490 -107 525 -2 14 -13 66 -24 115 -11 50 -22 99 -24 110
-40 203 -129 538 -145 543 -11 4 -12 0 -6 -14z"/>
<path d="M601 1670 c-1 -41 -7 -98 -15 -126 -13 -50 -92 -193 -166 -304 -60
-89 -86 -146 -55 -120 8 7 12 16 9 21 -3 5 2 6 10 3 10 -4 12 -13 6 -33 -9
-32 -2 -81 11 -81 5 0 9 -9 9 -20 0 -11 4 -20 10 -20 5 0 7 -7 4 -15 -4 -9 0
-15 9 -15 10 0 17 -11 19 -27 2 -21 8 -28 23 -26 15 1 24 -7 33 -29 6 -18 14
-29 17 -26 3 3 -1 21 -10 41 -11 28 -19 34 -35 30 -16 -4 -20 -1 -20 21 0 16
-6 26 -14 26 -9 0 -12 7 -9 20 3 12 0 20 -7 20 -7 0 -10 8 -7 20 3 14 0 20
-10 20 -13 0 -14 9 -8 56 6 51 5 56 -10 50 -21 -8 -20 -7 36 79 113 171 157
258 173 337 18 85 19 123 6 153 -6 14 -9 -4 -9 -55z"/>
<path d="M2334 1593 c20 -10 26 -20 23 -34 -3 -10 -1 -21 3 -24 5 -3 10 7 12
22 2 19 10 29 23 31 44 8 31 17 -27 18 -59 1 -60 1 -34 -13z"/>
<path d="M1602 1313 c-28 -42 -33 -60 -43 -163 -4 -52 -10 -104 -13 -116 -12
-57 -31 -105 -48 -120 -10 -10 -18 -23 -18 -29 0 -15 -43 -45 -64 -45 -7 0
-16 -7 -20 -15 -4 -12 0 -14 22 -9 39 10 62 23 62 37 0 7 9 18 19 24 29 18 67
152 75 259 8 109 18 150 48 181 12 12 17 23 10 23 -6 0 -19 -12 -30 -27z"/>
<path d="M1533 1145 c0 -27 2 -38 4 -22 2 15 2 37 0 50 -2 12 -4 0 -4 -28z"/>
<path d="M1248 4223 c-83 -3 -128 -7 -128 -14 0 -8 59 -10 198 -6 186 6 202 5
280 -17 45 -13 85 -20 87 -15 3 4 -14 13 -37 19 -24 6 -63 18 -87 25 -26 9
-74 14 -115 13 -39 -1 -128 -4 -198 -5z"/>
<path d="M1740 4153 c0 -5 11 -20 25 -33 20 -19 27 -21 40 -10 21 18 19 27 -9
34 -13 3 -31 9 -40 12 -9 3 -16 2 -16 -3z"/>
<path d="M1867 4084 c-4 -4 13 -19 36 -34 71 -45 107 -156 73 -222 -12 -22
-12 -28 -2 -28 17 0 36 44 36 84 0 61 -29 124 -77 166 -47 41 -55 45 -66 34z"/>
<path d="M2344 4061 c42 -46 58 -147 30 -176 -9 -9 -13 -19 -9 -23 12 -13 45
40 45 73 0 60 -40 144 -69 145 -11 0 -10 -4 3 -19z"/>
</g>
</svg>
